<svg xmlns="http://www.w3.org/2000/svg" width="87.988" height="90.615" viewBox="0 0 87.988 90.615"><g transform="translate(1.5 1.5)"><path d="M191.331,134h11.428a3.808,3.808,0,0,1,3.809,3.809v70.473a3.808,3.808,0,0,1-3.809,3.809h-60.95A3.808,3.808,0,0,1,138,208.283V175.9" transform="translate(-121.58 -124.477)" fill="none" stroke="#fff" stroke-miterlimit="10" stroke-width="3"/><path d="M138,145.428v-7.619A3.808,3.808,0,0,1,141.809,134h11.428" transform="translate(-121.58 -124.477)" fill="none" stroke="#fff" stroke-miterlimit="10" stroke-width="3"/><path d="M187.712,138h7.619v62.854H142V179.9" transform="translate(-117.961 -120.858)" fill="none" stroke="#fff" stroke-miterlimit="10" stroke-width="3"/><path d="M142,149.428V138h7.619" transform="translate(-117.961 -120.858)" fill="none" stroke="#fff" stroke-miterlimit="10" stroke-width="3"/><path d="M178.38,136.619h-5.714a7.619,7.619,0,1,0-15.237,0h-5.714A5.714,5.714,0,0,0,146,142.333v5.714h38.094v-5.714A5.714,5.714,0,0,0,178.38,136.619Z" transform="translate(-114.342 -129)" fill="none" stroke="#fff" stroke-miterlimit="10" stroke-width="3"/><line y2="3.809" transform="translate(50.705 5.714)" fill="none" stroke="#fff" stroke-miterlimit="10" stroke-width="3"/><path d="M138.619,141l36.189,36.189,5.714,13.333-13.333-5.714L131,148.619Z" transform="translate(-127.912 -118.144)" fill="none" stroke="#fff" stroke-linejoin="round" stroke-width="3"/><path d="M138.181,142.466l-1.9-1.9a4.042,4.042,0,0,0-5.714,0h0a4.042,4.042,0,0,0,0,5.714l1.9,1.9" transform="translate(-129.379 -119.61)" fill="none" stroke="#fff" stroke-linejoin="round" stroke-width="3"/><line x1="5.714" y2="5.714" transform="translate(39.276 59.045)" fill="none" stroke="#fff" stroke-linejoin="round" stroke-width="3"/></g></svg>