<svg xmlns="http://www.w3.org/2000/svg" width="68.122" height="91.521" viewBox="0 0 68.122 91.521"><g transform="translate(1.5 1.5)"><path d="M229,101.153V97.323s5.746-4.31,5.746-9.577V82" transform="translate(-198.354 -18.794)" fill="none" stroke="#fff" stroke-miterlimit="10" stroke-width="3"/><path d="M227.407,69l-9.577,7.661c-2.708,2.484-3.831,3.9-3.831,7.661v13l0,15.727" transform="translate(-212.084 -30.693)" fill="none" stroke="#fff" stroke-miterlimit="10" stroke-width="3"/><path d="M213,99.661V92h34.476v7.661" transform="translate(-213 -9.64)" fill="none" stroke="#fff" stroke-miterlimit="10" stroke-width="3"/><path d="M218,87.711l15.323-15.323c3.528-3.528,9.012,5.26,4.807,10.515l-4.807,4.808v5.746c0,7.51-6.535,7.661-7.661,7.661" transform="translate(-208.423 -28.336)" fill="none" stroke="#fff" stroke-miterlimit="10" stroke-width="3"/><path d="M221,102.63v-49.8A3.83,3.83,0,0,1,224.831,49h34.476L270.8,60.492v47.883a3.83,3.83,0,0,1-3.831,3.831H230.577" transform="translate(-205.677 -49)" fill="none" stroke="#fff" stroke-miterlimit="10" stroke-width="3"/><path d="M240,52v7.661h7.661" transform="translate(-188.285 -46.254)" fill="none" stroke="#fff" stroke-miterlimit="10" stroke-width="3"/><line x2="29.46" transform="translate(26.466 25.201)" fill="none" stroke="#fff" stroke-miterlimit="10" stroke-width="3"/><line x2="15.238" transform="translate(26.466 32.312)" fill="none" stroke="#fff" stroke-miterlimit="10" stroke-width="3"/></g></svg>