<svg xmlns="http://www.w3.org/2000/svg" width="139.191" height="84.443" viewBox="0 0 139.191 84.443"><g transform="translate(-227.922 1648.905) rotate(-90)"><path d="M1601.254,242.217c-2.784-1.285-4.25-.509-4.877.066-1.163,1.07-1.283,2.9-.36,5.439a62.45,62.45,0,0,0,2.52,6.025,47.618,47.618,0,0,1,2.633,6.662.7.7,0,0,1,.022.365c-.651,2.99-4.43,9.462-5.831,10h-10.941c-1.4-.543-5.181-7.014-5.83-10.006a.7.7,0,0,1,.022-.364,47.557,47.557,0,0,1,2.633-6.663,62.173,62.173,0,0,0,2.519-6.024c.924-2.538.8-4.368-.36-5.438-.625-.576-2.092-1.351-4.877-.066-5.955,2.745-14.534,12.994-14.042,26.275.372,10.011,6.154,18.12,14.836,20.967l-1.713,75.2a8.372,8.372,0,0,0,2.426,6.08,8.822,8.822,0,0,0,6.268,2.647h7.177a8.822,8.822,0,0,0,6.268-2.647,8.373,8.373,0,0,0,2.426-6.08l-1.713-75.233a22.927,22.927,0,0,0,14.837-20.936C1615.788,255.212,1607.208,244.962,1601.254,242.217Zm11.245,26.171a20.058,20.058,0,0,1-13.868,18.7,1.4,1.4,0,0,0-.993,1.371l1.737,76.268a5.6,5.6,0,0,1-1.631,4.06,6,6,0,0,1-4.267,1.8H1586.3a6,6,0,0,1-4.267-1.8,5.6,5.6,0,0,1-1.631-4.06l1.737-76.268a1.4,1.4,0,0,0-1.031-1.382c-8.06-2.189-13.489-9.525-13.83-18.687-.43-11.578,6.808-20.329,11.47-23.125a5.437,5.437,0,0,1,2.543-.956.531.531,0,0,1,.209.029s.314.552-.368,2.43a59.413,59.413,0,0,1-2.42,5.787,50.49,50.49,0,0,0-2.762,6.99,3.5,3.5,0,0,0-.1,1.826c.513,2.362,4.983,12.208,8.494,12.208h11.082c3.509,0,7.981-9.846,8.494-12.209a3.51,3.51,0,0,0-.095-1.823,50.536,50.536,0,0,0-2.764-6.99,59.175,59.175,0,0,1-2.42-5.788c-.678-1.862-.377-2.416-.384-2.416.126-.074,1.012-.14,2.767.913C1605.691,248.059,1612.929,256.81,1612.5,268.388Z" transform="translate(0 -6.274)" fill="#fff"/><path d="M1607.722,344.55h-.977c-2.014,0-3.609,2-3.631,4.549l-.536,59.842a5.009,5.009,0,0,0,1.341,3.569,3.235,3.235,0,0,0,2.291,1h2.048a3.229,3.229,0,0,0,2.288-1,5,5,0,0,0,1.343-3.57l-.536-59.84C1611.331,346.549,1609.737,344.55,1607.722,344.55Zm.837,65.991a.5.5,0,0,1-.3.176h-2.048a.508.508,0,0,1-.3-.176,2.253,2.253,0,0,1-.53-1.575l.536-59.841c.01-1.085.553-1.776.833-1.776h.977c.281,0,.823.692.833,1.777l.536,59.841A2.251,2.251,0,0,1,1608.56,410.541Z" transform="translate(-17.587 -53.815)" fill="#fff"/><path d="M1696.447,304.173v-1.537a4.986,4.986,0,0,0-4.98-4.981h-4.423l-.843-57.708,1.693-4.027a2.79,2.79,0,0,0,.18-1.546l-.708-4.227a2.416,2.416,0,0,0-2.4-2.226h-5.99a2.417,2.417,0,0,0-2.4,2.225l-.708,4.226a2.791,2.791,0,0,0,.18,1.547l1.694,4.027-.844,57.709h-4.422a4.986,4.986,0,0,0-4.98,4.981v1.537a4.986,4.986,0,0,0,4.8,4.976l-4.155,47.614a9.015,9.015,0,0,0,2.435,6.922,10.735,10.735,0,0,0,7.787,3.428h7.226a10.735,10.735,0,0,0,7.786-3.428,9.015,9.015,0,0,0,2.437-6.922l-4.155-47.614A4.986,4.986,0,0,0,1696.447,304.173Zm-16.125-65.311-1.694-4.027.689-4.115h5.309l.689,4.117-1.693,4.024a2.784,2.784,0,0,0-.219,1.128l.843,57.667h-4.55l.844-57.664A2.778,2.778,0,0,0,1680.322,238.862Zm13.328,65.311a2.185,2.185,0,0,1-2.182,2.182h-1.344a1.4,1.4,0,0,0-1.385,1.6c.027.192.042.388.055.583l4.227,48.472a6.255,6.255,0,0,1-1.712,4.789,7.893,7.893,0,0,1-5.724,2.521h-7.226a7.893,7.893,0,0,1-5.725-2.521,6.253,6.253,0,0,1-1.71-4.789l4.2-48.162.026-.323c.014-.192.027-.382.054-.57a1.4,1.4,0,0,0-1.386-1.6h-1.344a2.185,2.185,0,0,1-2.182-2.182v-1.537a2.185,2.185,0,0,1,2.182-2.183h18.991a2.185,2.185,0,0,1,2.182,2.183Z" transform="translate(-47.542)" fill="#fff"/><path d="M1698.209,392.054a1.4,1.4,0,0,0-1.346,1.45l1.539,41.265a1.4,1.4,0,0,0,1.4,1.346h.053a1.4,1.4,0,0,0,1.346-1.45l-1.54-41.265A1.393,1.393,0,0,0,1698.209,392.054Z" transform="translate(-61.092 -75.733)" fill="#fff"/><path d="M1686.821,392.054a1.385,1.385,0,0,0-1.45,1.345l-1.54,41.265a1.4,1.4,0,0,0,1.347,1.45h.053a1.4,1.4,0,0,0,1.4-1.346l1.54-41.265A1.4,1.4,0,0,0,1686.821,392.054Z" transform="translate(-55.079 -75.734)" fill="#fff"/></g></svg>