<svg xmlns="http://www.w3.org/2000/svg" width="85.123" height="102.201" viewBox="0 0 85.123 102.201"><g transform="translate(2 2)"><path d="M362.134,592.071q1.2-.071,2.427-.071a40.555,40.555,0,1,1-33.29,17.384" transform="translate(-324 -574.922)" fill="none" stroke="#f9b233" stroke-miterlimit="10" stroke-width="4"/><path d="M352.618,596.809c0,14.944-12.809,25.618-12.809,25.618S327,611.752,327,596.809a12.809,12.809,0,1,1,25.618,0Z" transform="translate(-320.596 -584)" fill="none" stroke="#f9b233" stroke-miterlimit="10" stroke-width="4"/><ellipse cx="6.381" cy="6.381" rx="6.381" ry="6.381" transform="translate(12.762 6.617)" fill="none" stroke="#f9b233" stroke-miterlimit="10" stroke-width="4"/><path d="M331.34,641.887l7.814-10.674,4.27,2.135,8.539-2.135,4.27-12.809,17.078-6.4,8.539,2.135,2.135,8.539-4.27,10.674,4.966,5.423" transform="translate(-315.671 -552.225)" fill="none" stroke="#f9b233" stroke-miterlimit="10" stroke-width="4"/><path d="M341.614,638.969l7.228-6.3L350.977,622l6.4,2.135,7.2,9.673" transform="translate(-304.011 -540.877)" fill="none" stroke="#f9b233" stroke-miterlimit="10" stroke-width="4"/><path d="M328,612.27l6.4-4.27,10.674,4.27-2.135,10.674L328,618.674Z" transform="translate(-319.461 -556.765)" fill="none" stroke="#f9b233" stroke-miterlimit="10" stroke-width="4"/><path d="M349.827,592.188,348.4,606.731l-6.4,6.4,4.27,8.539,12.809-4.27,10.674,4.27,12.325-3.687" transform="translate(-303.573 -574.709)" fill="none" stroke="#f9b233" stroke-miterlimit="10" stroke-width="4"/><path d="M352.581,594.129,351,600.258l6.4,6.4,7.085-3.179" transform="translate(-293.36 -572.506)" fill="none" stroke="#f9b233" stroke-miterlimit="10" stroke-width="4"/></g></svg>
