<svg id="icon-instagram" xmlns="http://www.w3.org/2000/svg" width="30" height="30" viewBox="0 0 30 30">
  <g id="Retângulo_49" data-name="Retângulo 49" fill="none" stroke="#fff" stroke-width="1">
    <rect width="30" height="30" rx="15" stroke="none"/>
    <rect x="0.5" y="0.5" width="29" height="29" rx="14.5" fill="none"/>
  </g>
  <g id="instagram" transform="translate(8 8)">
    <g id="Grupo_66" data-name="Grupo 66">
      <g id="Grupo_65" data-name="Grupo 65">
        <path id="Caminho_35" data-name="Caminho 35" d="M9.571,0H4.351A4.351,4.351,0,0,0,0,4.351V9.571a4.351,4.351,0,0,0,4.351,4.351H9.571a4.351,4.351,0,0,0,4.351-4.351V4.351A4.351,4.351,0,0,0,9.571,0Zm3.045,9.571a3.049,3.049,0,0,1-3.045,3.045H4.351A3.049,3.049,0,0,1,1.305,9.571V4.351A3.049,3.049,0,0,1,4.351,1.305H9.571a3.049,3.049,0,0,1,3.045,3.045Z" fill="#fff"/>
      </g>
    </g>
    <g id="Grupo_68" data-name="Grupo 68" transform="translate(3.48 3.48)">
      <g id="Grupo_67" data-name="Grupo 67">
        <path id="Caminho_36" data-name="Caminho 36" d="M131.48,128a3.48,3.48,0,1,0,3.48,3.48A3.481,3.481,0,0,0,131.48,128Zm0,5.656a2.175,2.175,0,1,1,2.175-2.175A2.178,2.178,0,0,1,131.48,133.656Z" transform="translate(-128 -128)" fill="#fff"/>
      </g>
    </g>
    <g id="Grupo_70" data-name="Grupo 70" transform="translate(10.239 2.756)">
      <g id="Grupo_69" data-name="Grupo 69">
        <circle id="Elipse_3" data-name="Elipse 3" cx="0.464" cy="0.464" r="0.464" fill="#fff"/>
      </g>
    </g>
  </g>
</svg>
