<svg id="icon-shower" xmlns="http://www.w3.org/2000/svg" width="53.5" height="68.298" viewBox="0 0 53.5 68.298">
  <g id="Grupo_311" data-name="Grupo 311">
    <g id="Grupo_310" data-name="Grupo 310" transform="translate(0)">
      <path id="Caminho_67" data-name="Caminho 67" d="M102.085,0A3.415,3.415,0,0,0,98.67,3.415V4.553H73.628a5.7,5.7,0,0,0-5.691,5.691v5.691H65.66a3.415,3.415,0,0,0-3.415,3.415v3.921a16.765,16.765,0,0,0-7.968,14.291v1.348A3.415,3.415,0,0,0,52,42.117v2.277a1.138,1.138,0,0,0,1.138,1.138H89.564A1.138,1.138,0,0,0,90.7,44.394V42.117a3.415,3.415,0,0,0-2.277-3.205V37.564a17.007,17.007,0,0,0-5.009-12.078,15.356,15.356,0,0,0-2.96-2.232v-3.9a3.415,3.415,0,0,0-3.415-3.415H74.766V12.521A1.138,1.138,0,0,1,75.9,11.383H98.67V13.66a3.415,3.415,0,0,0,3.415,3.415H105.5V0ZM88.426,42.117v1.138H54.277V42.117a1.138,1.138,0,0,1,1.138-1.138H87.287A1.138,1.138,0,0,1,88.426,42.117ZM81.813,27.1a14.739,14.739,0,0,1,4.336,10.466V38.7h-29.6V37.564a14.53,14.53,0,0,1,7.141-12.521H79.016A13.272,13.272,0,0,1,81.813,27.1Zm-4.771-8.886a1.138,1.138,0,0,1,1.138,1.138v3.415H64.521V19.351a1.138,1.138,0,0,1,1.138-1.138ZM98.67,9.106H75.9a3.415,3.415,0,0,0-3.415,3.415v3.415H70.213V10.245A3.415,3.415,0,0,1,73.628,6.83H98.67Zm4.553,5.691h-1.138a1.138,1.138,0,0,1-1.138-1.138V3.415a1.138,1.138,0,0,1,1.138-1.138h1.138Z" transform="translate(-52)" fill="#163528"/>
    </g>
  </g>
  <g id="Grupo_313" data-name="Grupo 313" transform="translate(18.213 47.809)">
    <g id="Grupo_312" data-name="Grupo 312" transform="translate(0)">
      <path id="Caminho_68" data-name="Caminho 68" d="M181.138,336A1.138,1.138,0,0,0,180,337.138v4.553a1.138,1.138,0,1,0,2.277,0v-4.553A1.138,1.138,0,0,0,181.138,336Z" transform="translate(-180 -336)" fill="#163528"/>
    </g>
  </g>
  <g id="Grupo_315" data-name="Grupo 315" transform="translate(18.213 56.915)">
    <g id="Grupo_314" data-name="Grupo 314" transform="translate(0)">
      <path id="Caminho_69" data-name="Caminho 69" d="M181.138,400A1.138,1.138,0,0,0,180,401.138v4.553a1.138,1.138,0,1,0,2.277,0v-4.553A1.138,1.138,0,0,0,181.138,400Z" transform="translate(-180 -400)" fill="#163528"/>
    </g>
  </g>
  <g id="Grupo_317" data-name="Grupo 317" transform="translate(31.873 52.362)">
    <g id="Grupo_316" data-name="Grupo 316">
      <path id="Caminho_70" data-name="Caminho 70" d="M277.138,368A1.138,1.138,0,0,0,276,369.138v4.553a1.138,1.138,0,0,0,2.277,0v-4.553A1.138,1.138,0,0,0,277.138,368Z" transform="translate(-276 -368)" fill="#163528"/>
    </g>
  </g>
  <g id="Grupo_319" data-name="Grupo 319" transform="translate(22.766 52.362)">
    <g id="Grupo_318" data-name="Grupo 318">
      <path id="Caminho_71" data-name="Caminho 71" d="M213.138,368A1.138,1.138,0,0,0,212,369.138v4.553a1.138,1.138,0,0,0,2.277,0v-4.553A1.138,1.138,0,0,0,213.138,368Z" transform="translate(-212 -368)" fill="#163528"/>
    </g>
  </g>
  <g id="Grupo_321" data-name="Grupo 321" transform="translate(13.66 52.362)">
    <g id="Grupo_320" data-name="Grupo 320" transform="translate(0)">
      <path id="Caminho_72" data-name="Caminho 72" d="M149.138,368A1.138,1.138,0,0,0,148,369.138v4.553a1.138,1.138,0,1,0,2.277,0v-4.553A1.138,1.138,0,0,0,149.138,368Z" transform="translate(-148 -368)" fill="#163528"/>
    </g>
  </g>
  <g id="Grupo_323" data-name="Grupo 323" transform="translate(4.553 52.362)">
    <g id="Grupo_322" data-name="Grupo 322" transform="translate(0)">
      <path id="Caminho_73" data-name="Caminho 73" d="M85.138,368A1.138,1.138,0,0,0,84,369.138v4.553a1.138,1.138,0,1,0,2.277,0v-4.553A1.138,1.138,0,0,0,85.138,368Z" transform="translate(-84 -368)" fill="#163528"/>
    </g>
  </g>
  <g id="Grupo_325" data-name="Grupo 325" transform="translate(9.106 47.809)">
    <g id="Grupo_324" data-name="Grupo 324" transform="translate(0)">
      <path id="Caminho_74" data-name="Caminho 74" d="M117.138,336A1.138,1.138,0,0,0,116,337.138v4.553a1.138,1.138,0,1,0,2.277,0v-4.553A1.138,1.138,0,0,0,117.138,336Z" transform="translate(-116 -336)" fill="#163528"/>
    </g>
  </g>
  <g id="Grupo_327" data-name="Grupo 327" transform="translate(27.319 47.809)">
    <g id="Grupo_326" data-name="Grupo 326" transform="translate(0)">
      <path id="Caminho_75" data-name="Caminho 75" d="M245.138,336A1.138,1.138,0,0,0,244,337.138v4.553a1.138,1.138,0,0,0,2.277,0v-4.553A1.138,1.138,0,0,0,245.138,336Z" transform="translate(-244 -336)" fill="#163528"/>
    </g>
  </g>
  <g id="Grupo_329" data-name="Grupo 329" transform="translate(27.319 56.915)">
    <g id="Grupo_328" data-name="Grupo 328" transform="translate(0)">
      <path id="Caminho_76" data-name="Caminho 76" d="M245.138,400A1.138,1.138,0,0,0,244,401.138v4.553a1.138,1.138,0,0,0,2.277,0v-4.553A1.138,1.138,0,0,0,245.138,400Z" transform="translate(-244 -400)" fill="#163528"/>
    </g>
  </g>
  <g id="Grupo_331" data-name="Grupo 331" transform="translate(9.106 56.915)">
    <g id="Grupo_330" data-name="Grupo 330" transform="translate(0)">
      <path id="Caminho_77" data-name="Caminho 77" d="M117.138,400A1.138,1.138,0,0,0,116,401.138v4.553a1.138,1.138,0,1,0,2.277,0v-4.553A1.138,1.138,0,0,0,117.138,400Z" transform="translate(-116 -400)" fill="#163528"/>
    </g>
  </g>
  <g id="Grupo_333" data-name="Grupo 333" transform="translate(13.66 61.468)">
    <g id="Grupo_332" data-name="Grupo 332" transform="translate(0)">
      <path id="Caminho_78" data-name="Caminho 78" d="M149.138,432A1.138,1.138,0,0,0,148,433.138v4.553a1.138,1.138,0,1,0,2.277,0v-4.553A1.138,1.138,0,0,0,149.138,432Z" transform="translate(-148 -432)" fill="#163528"/>
    </g>
  </g>
  <g id="Grupo_335" data-name="Grupo 335" transform="translate(22.766 61.468)">
    <g id="Grupo_334" data-name="Grupo 334">
      <path id="Caminho_79" data-name="Caminho 79" d="M213.138,432A1.138,1.138,0,0,0,212,433.138v4.553a1.138,1.138,0,0,0,2.277,0v-4.553A1.138,1.138,0,0,0,213.138,432Z" transform="translate(-212 -432)" fill="#163528"/>
    </g>
  </g>
</svg>
