<svg xmlns="http://www.w3.org/2000/svg" width="116.945" height="86.379" viewBox="0 0 116.945 86.379"><g transform="translate(1.201 1.599)"><path d="M427.8,614.859h0a4.9,4.9,0,0,1,6.894-.728l7.62,6.169a4.9,4.9,0,0,1,.725,6.894h0a4.9,4.9,0,0,1-6.892.726l-7.622-6.169A4.9,4.9,0,0,1,427.8,614.859Z" transform="translate(-355.432 -556.85)" fill="none" stroke="#caae42" stroke-miterlimit="10" stroke-width="4"/><path d="M430.313,611.748h0a4.9,4.9,0,0,1,6.892-.725l3.811,3.083a4.9,4.9,0,0,1,.726,6.894h0a4.9,4.9,0,0,1-6.894.726l-3.808-3.083A4.9,4.9,0,0,1,430.313,611.748Z" transform="translate(-351.78 -561.361)" fill="none" stroke="#caae42" stroke-miterlimit="10" stroke-width="4"/><path d="M422.762,621.076h0a4.9,4.9,0,0,1,6.894-.726l1.9,1.542a4.9,4.9,0,0,1,.726,6.894h0a4.9,4.9,0,0,1-6.892.725l-1.907-1.542A4.9,4.9,0,0,1,422.762,621.076Z" transform="translate(-362.734 -547.828)" fill="none" stroke="#caae42" stroke-miterlimit="10" stroke-width="4"/><path d="M425.277,617.968h0a4.9,4.9,0,0,1,6.894-.728l5.715,4.627a4.9,4.9,0,0,1,.728,6.894h0a4.9,4.9,0,0,1-6.894.725l-5.715-4.625A4.9,4.9,0,0,1,425.277,617.968Z" transform="translate(-359.083 -552.34)" fill="none" stroke="#caae42" stroke-miterlimit="10" stroke-width="4"/><path d="M434.494,619.723l3.573-2.576a4.387,4.387,0,0,0,1.767-4.26h0a4.377,4.377,0,0,1,1.767-4.259l2.26-1.652" transform="translate(-344.129 -565.646)" fill="none" stroke="#caae42" stroke-miterlimit="10" stroke-width="4"/><path d="M428.188,606.709l-20.072,14.455a5.034,5.034,0,0,0-1.733,6.223,4.85,4.85,0,0,0,7.191,1.8l-3.723,2.684a5.029,5.029,0,0,0-1.735,6.22,4.851,4.851,0,0,0,7.191,1.8l3.936-2.833a4.853,4.853,0,0,0-.571,7.392,5.031,5.031,0,0,0,6.45.326l7.659-5.517a4.854,4.854,0,0,0-.571,7.392,5.028,5.028,0,0,0,6.45.326l5.681-4.09" transform="translate(-385.596 -566.035)" fill="none" stroke="#caae42" stroke-miterlimit="10" stroke-width="4"/><path d="M442.906,595.973a8.777,8.777,0,0,1-9.2.652h0a8.771,8.771,0,0,0-9.2.649l-3.071,2.211" transform="translate(-363.075 -582.121)" fill="none" stroke="#caae42" stroke-miterlimit="10" stroke-width="4"/><line y1="6.053" x2="8.404" transform="translate(47.185 67.17)" fill="none" stroke="#caae42" stroke-miterlimit="10" stroke-width="4"/><line y1="14.17" x2="19.675" transform="translate(33.646 56.851)" fill="none" stroke="#caae42" stroke-miterlimit="10" stroke-width="4"/><line y1="14.17" x2="19.675" transform="translate(27.978 48.981)" fill="none" stroke="#caae42" stroke-miterlimit="10" stroke-width="4"/><line y1="3.931" x2="5.458" transform="translate(41.985 37.18)" fill="none" stroke="#caae42" stroke-miterlimit="10" stroke-width="4"/><path d="M441.1,590.587l-11.865,8.418,25.255,35.6,11.865-8.418" transform="translate(-351.764 -589.424)" fill="none" stroke="#caae42" stroke-miterlimit="10" stroke-width="4"/><line x1="3.955" y2="2.806" transform="translate(102.468 33.633)" fill="none" stroke="#caae42" stroke-miterlimit="10" stroke-width="4"/><path d="M413.441,620.016l-3.306-2.453a4.385,4.385,0,0,1-1.7-4.284h0a4.394,4.394,0,0,0-1.706-4.287l-3.706-2.664" transform="translate(-389.792 -566.587)" fill="none" stroke="#caae42" stroke-miterlimit="10" stroke-width="4"/><path d="M411.9,595.731a8.769,8.769,0,0,0,9.19.782h0a8.774,8.774,0,0,1,9.19.782l3.982,2.958L458.4,618.165a2.5,2.5,0,0,1,.1,3.943l-.926.76a7.17,7.17,0,0,1-8.818.216" transform="translate(-376.91 -582.199)" fill="none" stroke="#caae42" stroke-miterlimit="10" stroke-width="4"/><path d="M447.508,612.107l-11.68-8.668-.478.36a19.046,19.046,0,0,1-22.182.6" transform="translate(-375.069 -570.779)" fill="none" stroke="#caae42" stroke-miterlimit="10" stroke-width="4"/><path d="M423.828,590.112l11.634,8.735-26.206,34.9-11.634-8.735" transform="translate(-397.622 -590.112)" fill="none" stroke="#caae42" stroke-miterlimit="10" stroke-width="4"/><line x2="3.878" y2="2.912" transform="translate(8.245 31.996)" fill="none" stroke="#caae42" stroke-miterlimit="10" stroke-width="4"/></g></svg>