<svg xmlns="http://www.w3.org/2000/svg" width="90.558" height="90.67" viewBox="0 0 90.558 90.67"><g transform="translate(0 2)"><path d="M679.7,452.9l13.88,3.955a5.486,5.486,0,0,1,2.886,8.567v0a3.909,3.909,0,0,1-3.849,1.5l-26.851-5.034a9.822,9.822,0,0,1-6.361-4.2h0a9.824,9.824,0,0,0-5.064-3.87l-9.295-3.1V429.9l25.766-1.611a38.889,38.889,0,0,1,14.711,1.918l8.614,2.871a15.386,15.386,0,0,1,10.4,12.686l2.574,20.6a2.748,2.748,0,0,1-2.728,3.09h0a6.357,6.357,0,0,1-6.233-5.112l-1.528-7.636a13,13,0,0,0-9.6-10.065l-2.352-.588a5.646,5.646,0,0,0-6.664,3.518h0A2.547,2.547,0,0,0,679.7,452.9Z" transform="translate(-618.58 -427.814)" fill="none" stroke="#f9b233" stroke-miterlimit="10" stroke-width="4"/><line x2="4.558" transform="translate(13.584 22.898)" fill="none" stroke="#f9b233" stroke-miterlimit="10" stroke-width="4"/><line y1="17.104" transform="translate(79.228 33.79)" fill="none" stroke="#f9b233" stroke-miterlimit="10" stroke-width="4"/><path d="M686.841,461.42a9.423,9.423,0,1,0-13.189,8.626v19.687a3.717,3.717,0,0,0,3.717,3.717h3.819v-23.4A9.416,9.416,0,0,0,686.841,461.42Z" transform="translate(-598.287 -406.78)" fill="none" stroke="#f9b233" stroke-miterlimit="10" stroke-width="4"/><circle cx="3.754" cy="3.754" r="3.754" transform="translate(75.473 50.894)" fill="none" stroke="#f9b233" stroke-miterlimit="10" stroke-width="4"/><line x2="3.754" transform="translate(75.473 79.261)" fill="none" stroke="#f9b233" stroke-miterlimit="10" stroke-width="4"/><line x2="3.754" transform="translate(75.473 73.42)" fill="none" stroke="#f9b233" stroke-miterlimit="10" stroke-width="4"/><line x2="3.754" transform="translate(75.473 67.997)" fill="none" stroke="#f9b233" stroke-miterlimit="10" stroke-width="4"/><path d="M685.55,469.064a9.415,9.415,0,0,1-9.863,1.879l-16.55,16.548-5.328-5.328,16.548-16.55a9.416,9.416,0,0,1,13.185-11.755" transform="translate(-610.835 -406.111)" fill="none" stroke="#f9b233" stroke-miterlimit="10" stroke-width="4"/><path d="M631,463.8h9.421v-7.537h16.957V428H631" transform="translate(-631 -428)" fill="none" stroke="#f9b233" stroke-miterlimit="10" stroke-width="4"/><line y1="22.527" transform="translate(9.562 5.84)" fill="none" stroke="#f9b233" stroke-miterlimit="10" stroke-width="4"/></g></svg>
