<svg xmlns="http://www.w3.org/2000/svg" width="99.621" height="85.749" viewBox="0 0 99.621 85.749"><g transform="translate(1.5 1.5)"><path d="M315,145.664a16.8,16.8,0,0,1,31.507,8.139c0,2.9-.586,9.746-2.1,12.613-5.951-.7-10.5,2.607-10.5,8.4,0,4.119,3.151,7.614,8.4,8.4" transform="translate(-260.389 -126.498)" fill="none" stroke="#fff" stroke-linecap="round" stroke-miterlimit="10" stroke-width="3"/><path d="M309.627,150.9a27.31,27.31,0,0,1,53.294,8.4" transform="translate(-266.301 -132)" fill="none" stroke="#fff" stroke-linecap="round" stroke-miterlimit="10" stroke-width="3"/><path d="M349.737,167.21c0,5.533-3.1,12.6-10.5,12.6-8.188,0-11.622-6.541-14.312-11.036A34.134,34.134,0,0,0,319.7,163" transform="translate(-255.218 -97.886)" fill="none" stroke="#fff" stroke-linecap="round" stroke-miterlimit="10" stroke-width="3"/><path d="M341.511,186.009h-23.1l-13.134,14.779a2.1,2.1,0,0,1-3.669-1.39V186.009h-6.3a6.292,6.292,0,0,1-6.3-6.291V150.312A6.31,6.31,0,0,1,295.3,144h46.21a6.31,6.31,0,0,1,6.3,6.312v29.406A6.292,6.292,0,0,1,341.511,186.009Z" transform="translate(-289 -118.795)" fill="none" stroke="#fff" stroke-linecap="round" stroke-miterlimit="10" stroke-width="3"/><line x2="29.992" transform="translate(14.568 41.645)" fill="none" stroke="#fff" stroke-linecap="round" stroke-miterlimit="10" stroke-width="3"/><line x2="16.871" transform="translate(14.568 50.08)" fill="none" stroke="#fff" stroke-linecap="round" stroke-miterlimit="10" stroke-width="3"/></g></svg>