<svg xmlns="http://www.w3.org/2000/svg" width="101.898" height="102.527" viewBox="0 0 101.898 102.527"><path d="M1209.152,263.512a4.612,4.612,0,0,0-3.406-2.483c-1.921-.159-3.527,1.372-4.718,2.717-1.573,1.777-3.062,3.355-4.639,5.027-1.007,1.068-2.021,2.141-3.057,3.27a1.253,1.253,0,0,0-.161,1.476,2.961,2.961,0,0,1-.683,3.781,3.008,3.008,0,0,1-3.877-.05,1.254,1.254,0,0,0-1.63-.019,46.375,46.375,0,0,0-3.87,3.594c-.32.329-.558.569-.762.756a10.558,10.558,0,0,0-1.116-1.221q-.363-.329-.74-.62c.18-.2.414-.443.728-.763a46.064,46.064,0,0,0,3.52-3.965,1.253,1.253,0,0,0-.055-1.627,2.991,2.991,0,0,1,3.638-4.643,1.255,1.255,0,0,0,1.47-.193c1.112-1.065,2.17-2.107,3.222-3.143,1.559-1.535,3.17-3.122,4.905-4.725,1.319-1.219,2.808-2.863,2.613-4.773a4.607,4.607,0,0,0-2.555-3.349c-4.471-2.7-19.832,9.119-19.987,9.24-4.949,3.912-8.338,9.657-10.643,18.054a10.594,10.594,0,0,0-1.25,1.162,10.791,10.791,0,0,0-2.307,3.98l-5.885.878-2.37-3.792a4.212,4.212,0,0,0-7.141,4.465s1.6,2.556,2.03,3.243c-18.719,5.806-34.146,18.158-41.317,33.092-1.961,4.081-1.9,8.035.164,10.847a6.757,6.757,0,0,0,5.308,2.857,5.217,5.217,0,0,0,5.01-3.727c5.946-16.46,17.992-27.989,33.92-32.463l.463-.129c2.386-.655,6.829-1.876,8.1-4.51a3.5,3.5,0,0,0,.35-1.467c1.032.073,2.047.182,2.934.289l.045.064a11,11,0,0,0,1.36,1.509,11.533,11.533,0,0,0,1.105.881c.126.91.247,1.892.336,2.874a3.518,3.518,0,0,0-1.208.337c-2.63,1.275-3.843,5.719-4.494,8.106l-.126.46c-4.452,15.937-15.963,28-32.412,33.969a5.322,5.322,0,0,0-3.667,4.255,6.59,6.59,0,0,0,2.811,6.065,8.483,8.483,0,0,0,5.092,1.586,13.4,13.4,0,0,0,5.76-1.436c14.928-7.2,27.255-22.651,33.027-41.365l3.247,2.019a4.21,4.21,0,0,0,4.45-7.146l-3.962-2.468.755-5.9a10.644,10.644,0,0,0,4.406-2.887c.227-.246.438-.509.639-.776,8.345-2.489,14.018-6,17.817-11.033C1200.455,283.533,1211.911,267.9,1209.152,263.512Zm-45.844,24.09a10.69,10.69,0,0,0,.629,4.3c-.765-.074-1.568-.137-2.369-.173l-2.212-3.539Zm-3.495,7.069c-.772,1.606-4.935,2.749-6.5,3.18l-.478.132c-16.728,4.7-29.37,16.783-35.6,34.025a2.821,2.821,0,0,1-2.249,2.044,4.066,4.066,0,0,1-3.692-1.805c-1.5-2.042-1.472-5.06.075-8.279,6.916-14.406,21.92-26.327,40.153-31.892.392-.126.782-.241,1.179-.354a1.253,1.253,0,0,0,.718-1.87l-.755-1.206-.032.02c-.279-.524-.876-1.477-2.113-3.45a1.708,1.708,0,0,1,2.893-1.807l2.77,4.432,3.4,5.442a3.394,3.394,0,0,1,.205.394A1.1,1.1,0,0,1,1159.814,294.671Zm20.008,16.513a1.6,1.6,0,0,1-2.264.593l-4.637-2.887a1.253,1.253,0,0,0-1.867.712c-.117.4-.234.8-.359,1.2-5.528,18.218-17.425,33.242-31.825,40.189-3.22,1.551-6.24,1.582-8.284.085a4.073,4.073,0,0,1-1.811-3.689,2.826,2.826,0,0,1,2.041-2.254c17.231-6.251,29.295-18.912,33.971-35.649l.131-.475c.427-1.568,1.564-5.733,3.17-6.511a.976.976,0,0,1,.44-.106,1.433,1.433,0,0,1,.552.126,2.359,2.359,0,0,1,.369.194l4.313,2.684,5.593,3.484A1.6,1.6,0,0,1,1179.822,311.184Zm-3.791-14.984a1.253,1.253,0,0,0-.937,1.056l-.714,5.575-3.6-2.241c-.113-1.548-.319-3.112-.513-4.471a1.251,1.251,0,0,0-.589-.893,8.478,8.478,0,0,1-1.23-.927,8.358,8.358,0,0,1-1.032-1.146c-.1-.136-.2-.272-.3-.434a8.19,8.19,0,0,1-1.216-5.822c.025-.159.054-.313.1-.5a8.213,8.213,0,0,1,3.18-4.789,1.251,1.251,0,0,0,.463-.654l.019-.066c2.161-8.061,5.3-13.5,9.879-17.12,5.38-4.24,15.407-10.11,17.139-9.062.587.354,1.3.894,1.356,1.458.062.6-.551,1.5-1.821,2.678-1.764,1.63-3.391,3.231-4.964,4.78-.852.84-1.709,1.684-2.6,2.54a5.5,5.5,0,0,0-6.485,8.033c-1.226,1.485-2.088,2.36-2.742,3.024a7.031,7.031,0,0,0-1.8,2.414,1.252,1.252,0,0,0,.529,1.549,8.287,8.287,0,0,1,1.383,1.03,8.186,8.186,0,0,1,1.145,1.3c.1.141.2.287.286.428a8.263,8.263,0,0,1,.048,8.54c-.087.144-.179.289-.3.453a7.733,7.733,0,0,1-.688.864A8.119,8.119,0,0,1,1176.031,296.2Zm22.307-14.023c-3.1,4.108-7.645,7.126-14.169,9.385a10.851,10.851,0,0,0-.476-7.832,14.049,14.049,0,0,0,1.215-1.158c.648-.666,1.5-1.544,2.949-2.8a5.5,5.5,0,0,0,7.888-6.653c.833-.9,1.652-1.767,2.467-2.631,1.521-1.612,3.094-3.279,4.693-5.085,1.147-1.3,2.036-1.936,2.641-1.88.566.045,1.123.746,1.488,1.323C1208.121,266.58,1202.467,276.722,1198.338,282.177Z" transform="translate(-1107.683 -252.158)" fill="#fff"/><path d="M1243.332,318.349a4.747,4.747,0,1,0-3.32,8.142h.055a4.747,4.747,0,0,0,3.265-8.142Zm-1.716,4.961a2.24,2.24,0,1,1-.035-3.17A2.225,2.225,0,0,1,1241.615,323.311Z" transform="translate(-1173.718 -285.718)" fill="#fff"/></svg>