<svg id="icon-car" xmlns="http://www.w3.org/2000/svg" width="57.125" height="44.186" viewBox="0 0 57.125 44.186">
  <g id="Grupo_337" data-name="Grupo 337">
    <g id="Grupo_336" data-name="Grupo 336" transform="translate(0 0)">
      <path id="Caminho_80" data-name="Caminho 80" d="M54.94,69.417,53.7,68.1,49.325,56.32A5.125,5.125,0,0,0,44.553,53H13.341a5.108,5.108,0,0,0-4.773,3.32L4.26,67.953l-1.794,1.66A7.013,7.013,0,0,0,0,74.947V92.109a5.1,5.1,0,0,0,5.1,5.078H8.325a5.1,5.1,0,0,0,5.1-5.078v-2.49H43.7v2.49a5.1,5.1,0,0,0,5.1,5.078h3.222a5.1,5.1,0,0,0,5.1-5.078V74.5A7.078,7.078,0,0,0,54.94,69.417ZM10.864,57.15a2.64,2.64,0,0,1,2.478-1.709H44.565a2.657,2.657,0,0,1,2.478,1.709L50.851,67.4H48.007a8.372,8.372,0,0,0-16.564,0H7.055ZM45.517,67.4H33.909a5.929,5.929,0,0,1,11.608,0ZM10.986,92.109a2.654,2.654,0,0,1-2.661,2.637H5.1a2.654,2.654,0,0,1-2.661-2.637v-3.2a4.957,4.957,0,0,0,2.661.708h5.883Zm43.7,0a2.654,2.654,0,0,1-2.661,2.637H48.8a2.662,2.662,0,0,1-2.661-2.637v-2.49h5.883a4.957,4.957,0,0,0,2.661-.708v3.2Zm-2.661-4.931H5.1a2.633,2.633,0,0,1-2.661-2.612V74.947a4.583,4.583,0,0,1,1.623-3.491l.049-.049,1.66-1.562H52L53.17,71.1c.012.024.049.037.061.061a4.6,4.6,0,0,1,1.44,3.332v10.07h.012A2.641,2.641,0,0,1,52.023,87.177Z" transform="translate(0 -53)" fill="#163528"/>
    </g>
  </g>
  <g id="Grupo_339" data-name="Grupo 339" transform="translate(5.737 21.727)">
    <g id="Grupo_338" data-name="Grupo 338" transform="translate(0 0)">
      <path id="Caminho_81" data-name="Caminho 81" d="M57.375,231H48.221A1.224,1.224,0,0,0,47,232.221v6.347a1.224,1.224,0,0,0,1.221,1.221h9.155a1.224,1.224,0,0,0,1.221-1.221v-6.347A1.224,1.224,0,0,0,57.375,231Zm-1.221,6.347H49.441v-3.906h6.713Z" transform="translate(-47 -231)" fill="#163528"/>
    </g>
  </g>
  <g id="Grupo_341" data-name="Grupo 341" transform="translate(39.792 21.727)">
    <g id="Grupo_340" data-name="Grupo 340" transform="translate(0 0)">
      <path id="Caminho_82" data-name="Caminho 82" d="M336.375,231h-9.155A1.224,1.224,0,0,0,326,232.221v6.347a1.224,1.224,0,0,0,1.221,1.221h9.155a1.224,1.224,0,0,0,1.221-1.221v-6.347A1.224,1.224,0,0,0,336.375,231Zm-1.221,6.347h-6.713v-3.906h6.713Z" transform="translate(-326 -231)" fill="#163528"/>
    </g>
  </g>
  <g id="Grupo_343" data-name="Grupo 343" transform="translate(21.446 26.854)">
    <g id="Grupo_342" data-name="Grupo 342">
      <path id="Caminho_83" data-name="Caminho 83" d="M188.712,273H176.921a1.221,1.221,0,0,0,0,2.441h11.791a1.221,1.221,0,0,0,0-2.441Z" transform="translate(-175.7 -273)" fill="#163528"/>
    </g>
  </g>
  <g id="Grupo_345" data-name="Grupo 345" transform="translate(21.446 23.07)">
    <g id="Grupo_344" data-name="Grupo 344" transform="translate(0 0)">
      <path id="Caminho_84" data-name="Caminho 84" d="M188.712,242H176.921a1.221,1.221,0,0,0,0,2.441h11.791a1.221,1.221,0,0,0,0-2.441Z" transform="translate(-175.7 -242)" fill="#163528"/>
    </g>
  </g>
</svg>
