<svg id="icon-witness" xmlns="http://www.w3.org/2000/svg" width="97.054" height="97.054" viewBox="0 0 97.054 97.054">
  <path id="Caminho_59" data-name="Caminho 59" d="M96.406,146.4c-8.821-10.747-27.5-23.289-47.879-23.289-20.456,0-39.132,12.627-47.88,23.289a2.854,2.854,0,0,0,0,3.621c9.03,11.007,27.75,23.289,47.88,23.289,20.845,0,39.441-13.008,47.879-23.289A2.855,2.855,0,0,0,96.406,146.4Zm-28.489,1.811a19.391,19.391,0,1,1-19.391-19.391A19.413,19.413,0,0,1,67.917,148.207Zm-61.207,0a68.945,68.945,0,0,1,21.835-15.171,25.035,25.035,0,0,0,0,30.336A67.688,67.688,0,0,1,6.71,148.207Zm61.8,15.17a25.035,25.035,0,0,0,0-30.336,67.7,67.7,0,0,1,21.831,15.165A68.942,68.942,0,0,1,68.509,163.377Z" transform="translate(0 -99.679)" fill="#caae42"/>
  <path id="Caminho_60" data-name="Caminho 60" d="M204,213.705A9.705,9.705,0,1,0,213.705,204,9.716,9.716,0,0,0,204,213.705Zm13.7,0a4,4,0,1,1-4-4A4,4,0,0,1,217.7,213.705Z" transform="translate(-165.178 -165.178)" fill="#caae42"/>
  <path id="Caminho_61" data-name="Caminho 61" d="M242.855,12.37a2.855,2.855,0,0,0,2.855-2.855V2.855a2.855,2.855,0,0,0-5.709,0V9.515A2.855,2.855,0,0,0,242.855,12.37Z" transform="translate(-194.328)" fill="#caae42"/>
  <path id="Caminho_62" data-name="Caminho 62" d="M338.37,34.024a2.855,2.855,0,0,0,3.894-1.066l3.8-6.661A2.854,2.854,0,1,0,341.1,23.47l-3.8,6.661A2.855,2.855,0,0,0,338.37,34.024Z" transform="translate(-272.811 -17.837)" fill="#caae42"/>
  <path id="Caminho_63" data-name="Caminho 63" d="M127.278,32.959a2.855,2.855,0,1,0,4.959-2.828l-3.8-6.661A2.855,2.855,0,0,0,123.48,26.3Z" transform="translate(-99.677 -17.837)" fill="#caae42"/>
  <path id="Caminho_64" data-name="Caminho 64" d="M242.855,445A2.855,2.855,0,0,0,240,447.855v6.661a2.855,2.855,0,0,0,5.709,0v-6.661A2.855,2.855,0,0,0,242.855,445Z" transform="translate(-194.328 -360.315)" fill="#caae42"/>
  <path id="Caminho_65" data-name="Caminho 65" d="M131.172,423.342a2.855,2.855,0,0,0-3.894,1.065l-3.8,6.661a2.854,2.854,0,1,0,4.959,2.828l3.8-6.661A2.854,2.854,0,0,0,131.172,423.342Z" transform="translate(-99.677 -342.475)" fill="#caae42"/>
  <path id="Caminho_66" data-name="Caminho 66" d="M342.264,424.407a2.854,2.854,0,1,0-4.959,2.828l3.8,6.661a2.854,2.854,0,1,0,4.959-2.828Z" transform="translate(-272.811 -342.475)" fill="#caae42"/>
</svg>
