<svg id="icon_whatsapp" xmlns="http://www.w3.org/2000/svg" width="45.01" height="45.225" viewBox="0 0 45.01 45.225">
  <path id="iconmonstr-whatsapp-1" d="M.057,45.225,3.236,33.611a22.408,22.408,0,1,1,8.7,8.5L.057,45.225Zm12.431-7.174a18.582,18.582,0,1,0-5.169-5.026L5.437,39.9l7.051-1.849Zm21.457-10.3c-.139-.234-.513-.373-1.074-.654s-3.313-1.636-3.827-1.822-.886-.281-1.261.281-1.447,1.822-1.773,2.2-.654.42-1.214.139a15.283,15.283,0,0,1-4.5-2.779,16.856,16.856,0,0,1-3.115-3.88c-.326-.56-.034-.863.245-1.142.253-.251.56-.654.84-.982a3.673,3.673,0,0,0,.565-.933,1.029,1.029,0,0,0-.047-.982c-.141-.279-1.261-3.036-1.726-4.157-.456-1.091-.918-.944-1.261-.961l-1.074-.019a2.052,2.052,0,0,0-1.492.7,6.283,6.283,0,0,0-1.96,4.671c0,2.757,2.007,5.419,2.286,5.793s3.948,6.03,9.565,8.455a32.4,32.4,0,0,0,3.192,1.18,7.7,7.7,0,0,0,3.528.222c1.076-.16,3.313-1.355,3.78-2.663a4.665,4.665,0,0,0,.326-2.664Z" transform="translate(-0.057)" fill="#fff"/>
</svg>
