<svg id="icon-swimming" xmlns="http://www.w3.org/2000/svg" width="78.755" height="89.583" viewBox="0 0 78.755 89.583">
  <g id="Grupo_278" data-name="Grupo 278" transform="translate(0)">
    <g id="Grupo_277" data-name="Grupo 277">
      <path id="Caminho_55" data-name="Caminho 55" d="M107.045,47.375l-3.317,1.945a4.425,4.425,0,0,1-4.522-.025l-3.1-1.864a9.678,9.678,0,0,0-9.889-.055L82.9,49.32A4.426,4.426,0,0,1,78.38,49.3l-3.1-1.864a9.715,9.715,0,0,0-.96-.505V10.874a5.625,5.625,0,0,1,11.25,0v5.934h5.249V10.874a10.874,10.874,0,0,0-21.747,0V31.748H47.008V10.874a5.625,5.625,0,0,1,11.249,0v5.934h5.249V10.874a10.874,10.874,0,0,0-21.747,0V49.023l-.507.3a4.426,4.426,0,0,1-4.522-.025l-3.08-1.852-2.7,4.5,3.08,1.852a9.671,9.671,0,0,0,9.882.054L47.222,51.9a4.432,4.432,0,0,1,4.529.025l3.1,1.864a9.67,9.67,0,0,0,9.882.054L68.047,51.9a4.432,4.432,0,0,1,4.529.025l3.1,1.864a9.672,9.672,0,0,0,9.882.054L88.872,51.9a4.433,4.433,0,0,1,4.529.025l3.1,1.864a9.671,9.671,0,0,0,9.882.054L109.7,51.9ZM69.071,46.123a9.678,9.678,0,0,0-3.68,1.254l-3.314,1.943a4.426,4.426,0,0,1-4.522-.025l-3.1-1.864a9.678,9.678,0,0,0-7.447-1.068V37H69.071Z" transform="translate(-30.946)" fill="#163528"/>
    </g>
  </g>
  <g id="Grupo_280" data-name="Grupo 280" transform="translate(0 63.565)">
    <g id="Grupo_279" data-name="Grupo 279" transform="translate(0)">
      <path id="Caminho_56" data-name="Caminho 56" d="M107.043,364.626l-3.317,1.945a4.426,4.426,0,0,1-4.522-.025l-3.1-1.864a9.679,9.679,0,0,0-9.889-.054L82.9,366.572a4.425,4.425,0,0,1-4.522-.025l-3.1-1.864a9.677,9.677,0,0,0-9.888-.054l-3.314,1.943a4.425,4.425,0,0,1-4.522-.025l-3.1-1.864a9.678,9.678,0,0,0-9.889-.054l-3.314,1.943a4.426,4.426,0,0,1-4.522-.025l-3.08-1.852-2.705,4.5,3.08,1.852a9.672,9.672,0,0,0,9.882.054l3.314-1.943a4.431,4.431,0,0,1,4.529.025l3.1,1.864a9.672,9.672,0,0,0,9.882.054l3.314-1.943a4.43,4.43,0,0,1,4.529.025l3.1,1.864a9.672,9.672,0,0,0,9.882.054l3.314-1.943a4.431,4.431,0,0,1,4.529.025l3.1,1.864a9.671,9.671,0,0,0,9.882.054l3.317-1.945Z" transform="translate(-30.944 -363.297)" fill="#163528"/>
    </g>
  </g>
  <g id="Grupo_282" data-name="Grupo 282" transform="translate(0 80.451)">
    <g id="Grupo_281" data-name="Grupo 281" transform="translate(0)">
      <path id="Caminho_57" data-name="Caminho 57" d="M107.045,461.131l-3.317,1.946a4.425,4.425,0,0,1-4.522-.025l-3.1-1.864a9.679,9.679,0,0,0-9.889-.054L82.9,463.077a4.426,4.426,0,0,1-4.522-.025l-3.1-1.864a9.677,9.677,0,0,0-9.888-.054l-3.314,1.943a4.425,4.425,0,0,1-4.522-.025l-3.1-1.864a9.678,9.678,0,0,0-9.889-.054l-3.314,1.943a4.426,4.426,0,0,1-4.522-.025l-3.08-1.852-2.7,4.5,3.08,1.852a9.671,9.671,0,0,0,9.882.054l3.314-1.943a4.433,4.433,0,0,1,4.529.025l3.1,1.864a9.67,9.67,0,0,0,9.882.054l3.314-1.943a4.431,4.431,0,0,1,4.529.025l3.1,1.864a9.671,9.671,0,0,0,9.882.054l3.314-1.943a4.432,4.432,0,0,1,4.529.025l3.1,1.864a9.671,9.671,0,0,0,9.882.054l3.317-1.945Z" transform="translate(-30.946 -459.802)" fill="#163528"/>
    </g>
  </g>
</svg>
