<svg xmlns="http://www.w3.org/2000/svg" width="126.137" height="106.434" viewBox="0 0 126.137 106.434"><g transform="translate(2.067 1.5)"><path d="M343.2,260.706l-43.667-29.511L319.19,219.34l11.545,7.246,33.684,21.14v31.821L343.2,293.23Z" transform="translate(-271.594 -202.525)" fill="none" stroke="#fff" stroke-linecap="round" stroke-linejoin="round" stroke-width="3"/><path d="M360.608,252.136l-29.174,18.477L289,244.091l31.365-19.409" transform="translate(-289 -193.7)" fill="none" stroke="#fff" stroke-linecap="round" stroke-linejoin="round" stroke-width="3"/><path d="M360.608,245.045l-29.174,18.477L289,237" transform="translate(-289 -173.348)" fill="none" stroke="#fff" stroke-linecap="round" stroke-linejoin="round" stroke-width="3"/><path d="M360.608,250.045l-29.174,18.477L289,242" transform="translate(-289 -165.087)" fill="none" stroke="#fff" stroke-linecap="round" stroke-linejoin="round" stroke-width="3"/><path d="M308.061,231.647,337.073,213l42.435,26.522-29.322,18.57" transform="translate(-257.508 -213)" fill="none" stroke="#fff" stroke-linecap="round" stroke-linejoin="round" stroke-width="3"/><line x1="29.165" y2="18.471" transform="translate(92.835 39.782)" fill="none" stroke="#fff" stroke-linecap="round" stroke-linejoin="round" stroke-width="3"/><line x1="29.174" y2="18.477" transform="translate(92.826 53.043)" fill="none" stroke="#fff" stroke-linecap="round" stroke-linejoin="round" stroke-width="3"/></g></svg>