<svg id="icon-enter" xmlns="http://www.w3.org/2000/svg" width="16.728" height="16" viewBox="0 0 16.728 16">
  <path id="Caminho_11" data-name="Caminho 11" d="M11.091,220.091H.545a.545.545,0,0,1,0-1.091H11.091a.545.545,0,0,1,0,1.091Zm0,0" transform="translate(0 -211.545)" fill="#fff"/>
  <path id="Caminho_12" data-name="Caminho 12" d="M224.549,140.539a.546.546,0,0,1-.386-.932l2.524-2.524-2.524-2.524a.546.546,0,0,1,.772-.772l2.909,2.909a.546.546,0,0,1,0,.772l-2.909,2.909A.541.541,0,0,1,224.549,140.539Zm0,0" transform="translate(-216.367 -129.085)" fill="#fff"/>
  <path id="Caminho_13" data-name="Caminho 13" d="M43.956,16.332a7.959,7.959,0,0,1-7.446-5.074.545.545,0,1,1,1.015-.4,6.909,6.909,0,1,0,0-5.056.545.545,0,1,1-1.015-.4,8,8,0,1,1,7.446,10.926Zm0,0" transform="translate(-35.228 -0.332)" fill="#fff"/>
</svg>
