<svg xmlns="http://www.w3.org/2000/svg" width="129.201" height="49.182" viewBox="0 0 129.201 49.182"><g transform="translate(0 0)"><g transform="translate(69.122 41.567)"><path d="M270.784,345.168h1.027v5.89h-1.027Z" transform="translate(-270.784 -344.831)" fill="#fff"/><path d="M275.688,347.927h1.026v.7a2.476,2.476,0,0,1,.24-.3,1.554,1.554,0,0,1,.68-.425,1.561,1.561,0,0,1,.465-.064,1.48,1.48,0,0,1,1.166.463,1.8,1.8,0,0,1,.412,1.246v2.827H278.65v-2.519a1.182,1.182,0,0,0-.246-.8.876.876,0,0,0-.7-.281.944.944,0,0,0-.717.29,1.128,1.128,0,0,0-.276.81v2.5h-1.026Z" transform="translate(-273.197 -346.143)" fill="#fff"/><path d="M287.783,352.471a2.295,2.295,0,0,1-1.648-.673,2.25,2.25,0,0,1-.484-.732,2.306,2.306,0,0,1-.174-.892v-.017a2.333,2.333,0,0,1,.174-.9,2.277,2.277,0,0,1,.484-.741,2.317,2.317,0,0,1,.734-.5,2.284,2.284,0,0,1,.922-.185,2.322,2.322,0,0,1,1.047.21,2.492,2.492,0,0,1,.728.556l-.631.682a2.383,2.383,0,0,0-.5-.4,1.267,1.267,0,0,0-.652-.156,1.172,1.172,0,0,0-.514.114,1.277,1.277,0,0,0-.4.3,1.4,1.4,0,0,0-.265.451,1.557,1.557,0,0,0-.1.547v.017a1.581,1.581,0,0,0,.1.555,1.372,1.372,0,0,0,.274.455,1.3,1.3,0,0,0,.421.307,1.354,1.354,0,0,0,1.174-.042,2.43,2.43,0,0,0,.517-.4l.615.606a2.8,2.8,0,0,1-.749.6A2.2,2.2,0,0,1,287.783,352.471Z" transform="translate(-278.013 -346.143)" fill="#fff"/><path d="M297.29,352.471a2.424,2.424,0,0,1-.939-.181,2.342,2.342,0,0,1-.748-.492,2.233,2.233,0,0,1-.493-.732,2.289,2.289,0,0,1-.177-.892v-.017a2.243,2.243,0,0,1,.182-.9,2.322,2.322,0,0,1,.5-.736,2.372,2.372,0,0,1,1.7-.686,2.425,2.425,0,0,1,.946.181,2.275,2.275,0,0,1,1.241,1.229,2.263,2.263,0,0,1,.176.9v.017a2.243,2.243,0,0,1-.18.892,2.311,2.311,0,0,1-1.25,1.237A2.412,2.412,0,0,1,297.29,352.471Zm.017-.883a1.311,1.311,0,0,0,.556-.114,1.289,1.289,0,0,0,.423-.307,1.334,1.334,0,0,0,.268-.45,1.618,1.618,0,0,0,.092-.543v-.017a1.53,1.53,0,0,0-.1-.555,1.39,1.39,0,0,0-.28-.454,1.347,1.347,0,0,0-.427-.307,1.375,1.375,0,0,0-1.1,0,1.325,1.325,0,0,0-.423.3,1.258,1.258,0,0,0-.267.451,1.627,1.627,0,0,0-.092.547v.017a1.507,1.507,0,0,0,.1.551,1.462,1.462,0,0,0,.28.455,1.312,1.312,0,0,0,.427.311A1.274,1.274,0,0,0,297.307,351.587Z" transform="translate(-282.666 -346.143)" fill="#fff"/><path d="M306.3,347.933h1.027v1a1.948,1.948,0,0,1,.6-.808,1.43,1.43,0,0,1,.976-.278v1.077h-.059a1.664,1.664,0,0,0-.615.109,1.29,1.29,0,0,0-.479.328,1.478,1.478,0,0,0-.311.551,2.473,2.473,0,0,0-.109.77v1.691H306.3Z" transform="translate(-288.257 -346.15)" fill="#fff"/><path d="M313.139,347.927h1.026v.741a2.213,2.213,0,0,1,.6-.593,1.587,1.587,0,0,1,.9-.24,2,2,0,0,1,.764.152,1.949,1.949,0,0,1,.659.446,2.239,2.239,0,0,1,.466.723,2.589,2.589,0,0,1,.175.984v.017a2.622,2.622,0,0,1-.172.985,2.179,2.179,0,0,1-.461.723,1.959,1.959,0,0,1-.664.446,2.023,2.023,0,0,1-.768.152,1.631,1.631,0,0,1-.907-.236,2.338,2.338,0,0,1-.6-.548v2.036h-1.026Zm2.3,3.652a1.208,1.208,0,0,0,.492-.1,1.224,1.224,0,0,0,.4-.282,1.3,1.3,0,0,0,.274-.446,1.648,1.648,0,0,0,.1-.593v-.017a1.624,1.624,0,0,0-.1-.585,1.354,1.354,0,0,0-.274-.45,1.192,1.192,0,0,0-.4-.286,1.209,1.209,0,0,0-.492-.1,1.243,1.243,0,0,0-.5.1,1.207,1.207,0,0,0-.412.29,1.443,1.443,0,0,0-.282.451,1.524,1.524,0,0,0-.105.58v.017a1.564,1.564,0,0,0,.105.585,1.383,1.383,0,0,0,.282.45,1.253,1.253,0,0,0,.909.387Z" transform="translate(-291.624 -346.143)" fill="#fff"/><path d="M326.113,352.471a2.424,2.424,0,0,1-.939-.181,2.342,2.342,0,0,1-.748-.492,2.249,2.249,0,0,1-.493-.732,2.3,2.3,0,0,1-.177-.892v-.017a2.252,2.252,0,0,1,.182-.9,2.321,2.321,0,0,1,.5-.736,2.372,2.372,0,0,1,1.7-.686,2.429,2.429,0,0,1,.947.181,2.276,2.276,0,0,1,1.241,1.229,2.263,2.263,0,0,1,.177.9v.017a2.244,2.244,0,0,1-.181.892,2.307,2.307,0,0,1-1.25,1.237A2.412,2.412,0,0,1,326.113,352.471Zm.017-.883a1.309,1.309,0,0,0,.556-.114,1.284,1.284,0,0,0,.423-.307,1.326,1.326,0,0,0,.268-.45,1.6,1.6,0,0,0,.092-.543v-.017a1.519,1.519,0,0,0-.1-.555,1.391,1.391,0,0,0-.28-.454,1.342,1.342,0,0,0-.427-.307,1.375,1.375,0,0,0-1.1,0,1.325,1.325,0,0,0-.423.3,1.257,1.257,0,0,0-.267.451,1.615,1.615,0,0,0-.092.547v.017a1.506,1.506,0,0,0,.1.551,1.472,1.472,0,0,0,.28.455,1.319,1.319,0,0,0,.427.311A1.276,1.276,0,0,0,326.129,351.587Z" transform="translate(-296.847 -346.143)" fill="#fff"/><path d="M335.12,347.933h1.027v1a1.952,1.952,0,0,1,.6-.808,1.43,1.43,0,0,1,.976-.278v1.077h-.058a1.66,1.66,0,0,0-.615.109,1.288,1.288,0,0,0-.48.328,1.493,1.493,0,0,0-.311.551,2.473,2.473,0,0,0-.109.77v1.691H335.12Z" transform="translate(-302.439 -346.15)" fill="#fff"/><path d="M344.385,352.394v-.547a1.9,1.9,0,0,1-.58.454,1.831,1.831,0,0,1-.858.186,2.041,2.041,0,0,1-.606-.089,1.49,1.49,0,0,1-.5-.261,1.272,1.272,0,0,1-.476-1.023V351.1a1.453,1.453,0,0,1,.135-.644,1.255,1.255,0,0,1,.375-.455,1.635,1.635,0,0,1,.571-.269,2.794,2.794,0,0,1,.719-.088,3.935,3.935,0,0,1,.686.051,4.234,4.234,0,0,1,.543.135v-.084a.885.885,0,0,0-.282-.707,1.206,1.206,0,0,0-.813-.244,2.715,2.715,0,0,0-.673.076,4.467,4.467,0,0,0-.6.2l-.276-.816a4.711,4.711,0,0,1,.757-.269,3.732,3.732,0,0,1,.934-.1,1.971,1.971,0,0,1,1.472.493,1.9,1.9,0,0,1,.48,1.384v2.634Zm.026-1.86a2.606,2.606,0,0,0-.459-.126,2.954,2.954,0,0,0-.56-.051,1.308,1.308,0,0,0-.748.185.583.583,0,0,0-.27.5v.017a.555.555,0,0,0,.248.488,1.068,1.068,0,0,0,.611.168,1.544,1.544,0,0,0,.467-.068,1.2,1.2,0,0,0,.374-.189.864.864,0,0,0,.249-.295.835.835,0,0,0,.088-.383Z" transform="translate(-305.511 -346.168)" fill="#fff"/><path d="M352.247,353.388l.673-.993a2.19,2.19,0,0,1-.7-.3,2.3,2.3,0,0,1-1.021-1.918v-.017a2.341,2.341,0,0,1,.174-.9,2.275,2.275,0,0,1,.484-.741,2.3,2.3,0,0,1,.735-.5,2.28,2.28,0,0,1,.921-.185,2.324,2.324,0,0,1,1.048.21,2.485,2.485,0,0,1,.727.556l-.631.682a2.316,2.316,0,0,0-.5-.4,1.268,1.268,0,0,0-.652-.156,1.166,1.166,0,0,0-.513.114,1.268,1.268,0,0,0-.4.3,1.4,1.4,0,0,0-.265.451,1.558,1.558,0,0,0-.1.547v.017a1.581,1.581,0,0,0,.1.555,1.361,1.361,0,0,0,.273.455,1.307,1.307,0,0,0,.421.307,1.352,1.352,0,0,0,1.173-.042,2.425,2.425,0,0,0,.518-.4l.614.606a3.122,3.122,0,0,1-.69.564,2.072,2.072,0,0,1-.951.261l-.547,1.3Z" transform="translate(-310.352 -346.143)" fill="#fff"/><path d="M363.019,350.833a2.411,2.411,0,0,1-.938-.181,2.342,2.342,0,0,1-.749-.492,2.248,2.248,0,0,1-.492-.732,2.28,2.28,0,0,1-.176-.892v-.017a2.268,2.268,0,0,1,.18-.9,2.328,2.328,0,0,1,1.245-1.237,2.394,2.394,0,0,1,.948-.185,2.434,2.434,0,0,1,.946.181,2.28,2.28,0,0,1,1.241,1.229,2.272,2.272,0,0,1,.177.9v.017a2.219,2.219,0,0,1-.182.892,2.3,2.3,0,0,1-1.249,1.237A2.414,2.414,0,0,1,363.019,350.833Zm-1.582-5.192a2.322,2.322,0,0,1,.35-.783.7.7,0,0,1,.593-.269,1.1,1.1,0,0,1,.345.055c.112.037.22.076.324.117s.2.08.291.114a.721.721,0,0,0,.252.05.358.358,0,0,0,.278-.1,1.173,1.173,0,0,0,.185-.32l.564.177a2.331,2.331,0,0,1-.349.774.7.7,0,0,1-.593.269,1.2,1.2,0,0,1-.345-.05c-.112-.034-.22-.072-.324-.114l-.295-.118a.688.688,0,0,0-.248-.055.356.356,0,0,0-.278.1,1.125,1.125,0,0,0-.185.319Zm1.6,4.309a1.315,1.315,0,0,0,.555-.114,1.279,1.279,0,0,0,.423-.307,1.325,1.325,0,0,0,.267-.45,1.592,1.592,0,0,0,.092-.543v-.017a1.54,1.54,0,0,0-.1-.555,1.4,1.4,0,0,0-.281-.454,1.332,1.332,0,0,0-.426-.307,1.377,1.377,0,0,0-1.1,0,1.336,1.336,0,0,0-.422.3,1.28,1.28,0,0,0-.268.451,1.627,1.627,0,0,0-.091.547v.017a1.5,1.5,0,0,0,.1.551,1.453,1.453,0,0,0,.28.455,1.313,1.313,0,0,0,.427.311A1.276,1.276,0,0,0,363.036,349.95Z" transform="translate(-315.007 -344.505)" fill="#fff"/><path d="M373.826,352.471a2.369,2.369,0,0,1-.9-.169,2.154,2.154,0,0,1-1.207-1.2,2.42,2.42,0,0,1-.176-.938v-.017a2.524,2.524,0,0,1,.159-.9,2.261,2.261,0,0,1,.451-.736,2.116,2.116,0,0,1,.685-.5,2.078,2.078,0,0,1,.875-.181,2.108,2.108,0,0,1,.93.194,1.914,1.914,0,0,1,.665.521,2.3,2.3,0,0,1,.4.761,3.076,3.076,0,0,1,.135.913c0,.045,0,.091,0,.139s-.007.1-.012.147h-3.265a1.3,1.3,0,0,0,.434.837,1.278,1.278,0,0,0,.845.29,1.489,1.489,0,0,0,.657-.134,2.158,2.158,0,0,0,.547-.4l.6.529a2.47,2.47,0,0,1-.761.607A2.287,2.287,0,0,1,373.826,352.471Zm1.01-2.634a1.744,1.744,0,0,0-.109-.459,1.186,1.186,0,0,0-.227-.37,1.1,1.1,0,0,0-.341-.249,1.055,1.055,0,0,0-.451-.092,1.027,1.027,0,0,0-.778.324,1.465,1.465,0,0,0-.374.846Z" transform="translate(-320.361 -346.143)" fill="#fff"/><path d="M383.2,352.47a2.963,2.963,0,0,1-.971-.17,3.112,3.112,0,0,1-.913-.5l.454-.692a2.943,2.943,0,0,0,.737.408,2.053,2.053,0,0,0,.719.139.863.863,0,0,0,.509-.13.41.41,0,0,0,.18-.349v-.017a.327.327,0,0,0-.079-.218.689.689,0,0,0-.219-.16,2.519,2.519,0,0,0-.32-.126c-.121-.039-.245-.079-.374-.118q-.245-.067-.493-.159a1.818,1.818,0,0,1-.446-.239,1.2,1.2,0,0,1-.324-.366,1.064,1.064,0,0,1-.126-.537v-.017a1.249,1.249,0,0,1,.458-.991,1.511,1.511,0,0,1,.5-.268,2.033,2.033,0,0,1,.619-.093,2.8,2.8,0,0,1,.849.137,3.052,3.052,0,0,1,.783.374l-.4.727a3.409,3.409,0,0,0-.648-.307,1.863,1.863,0,0,0-.606-.113.734.734,0,0,0-.458.126.386.386,0,0,0-.164.319v.016a.289.289,0,0,0,.084.206.835.835,0,0,0,.223.16,2.609,2.609,0,0,0,.32.134q.181.062.375.122c.163.05.326.109.488.176a2.045,2.045,0,0,1,.441.248,1.206,1.206,0,0,1,.324.357.974.974,0,0,1,.127.512v.017a1.389,1.389,0,0,1-.127.613,1.181,1.181,0,0,1-.349.432,1.536,1.536,0,0,1-.526.261A2.315,2.315,0,0,1,383.2,352.47Z" transform="translate(-325.17 -346.159)" fill="#fff"/></g><g transform="translate(40.252 4.67)"><path d="M229.53,302.773a15.974,15.974,0,0,1-6.317-1.217,14.994,14.994,0,0,1-4.909-3.308,15.166,15.166,0,0,1-3.2-4.887,15.463,15.463,0,0,1-1.152-5.954v-.085a15.467,15.467,0,0,1,1.152-5.955,15.063,15.063,0,0,1,3.244-4.909,15.564,15.564,0,0,1,11.268-4.588,15.982,15.982,0,0,1,6.317,1.216,15.009,15.009,0,0,1,4.909,3.308,15.179,15.179,0,0,1,3.2,4.887,15.467,15.467,0,0,1,1.153,5.954v.085a15.459,15.459,0,0,1-1.153,5.954,15.061,15.061,0,0,1-3.244,4.909,15.564,15.564,0,0,1-11.268,4.589Zm.085-4.823a9.779,9.779,0,0,0,4.059-.833,9.62,9.62,0,0,0,3.166-2.263A10.46,10.46,0,0,0,238.9,291.5a11.246,11.246,0,0,0,.744-4.1v-.085a11.422,11.422,0,0,0-.744-4.119,10.252,10.252,0,0,0-2.083-3.372,10.079,10.079,0,0,0-3.208-2.283,9.879,9.879,0,0,0-11.306,2.241,10.476,10.476,0,0,0-2.061,3.351,11.251,11.251,0,0,0-.744,4.1v.085a11.415,11.415,0,0,0,.744,4.119,10.229,10.229,0,0,0,2.083,3.372,10.049,10.049,0,0,0,3.209,2.284A9.7,9.7,0,0,0,229.616,297.951Z" transform="translate(-213.951 -271.871)" fill="#fff"/><path d="M289.185,271.871h2.728v26h15.972v4.818H286.618V274.438A2.567,2.567,0,0,1,289.185,271.871Z" transform="translate(-249.705 -271.871)" fill="#fff"/><path d="M360.914,277.86a9.121,9.121,0,0,0-2.3-3.211,10.211,10.211,0,0,0-3.646-2.062,15.112,15.112,0,0,0-4.8-.716h-4.135a2.567,2.567,0,0,0-2.567,2.567v2.269h-5.276v10.962h-1.827a2.875,2.875,0,0,0-2.875,2.875v2.42h4.7v9.723h5.295v-10.2h6.047a16.251,16.251,0,0,0,4.742-.673,11.632,11.632,0,0,0,3.871-1.975,9.337,9.337,0,0,0,2.61-3.234,10,10,0,0,0,.958-4.492v-.087A10.449,10.449,0,0,0,360.914,277.86Zm-4.622,4.362a4.948,4.948,0,0,1-1.764,3.922,7.108,7.108,0,0,1-4.812,1.525h-6.228V276.688h6.228a7.664,7.664,0,0,1,4.79,1.373,4.82,4.82,0,0,1,1.786,4.074Z" transform="translate(-272.767 -271.871)" fill="#fff"/></g><path d="M182.981,306.418v11.094a2.161,2.161,0,0,1-2.161,2.161H167.487a2.161,2.161,0,0,1-1.78-3.387l7.64-11.094a2.161,2.161,0,0,1,1.78-.936h5.692A2.161,2.161,0,0,1,182.981,306.418Z" transform="translate(-149.773 -283.135)" fill="#2d2e83"/><path d="M172.772,280.6h6.067a2.476,2.476,0,0,0,2.476-2.476v-4.277a2.476,2.476,0,0,0-1.089-2.051l-12.849-8.7a2.476,2.476,0,0,0-2.754-.014l-1.578,1.044a2.476,2.476,0,0,0-.66,3.486l8.359,11.927A2.476,2.476,0,0,0,172.772,280.6Z" transform="translate(-148.107 -262.677)" fill="#1d71b8"/><path d="M136.035,281.063l7.322-4.893a3.166,3.166,0,0,1,4.306.755l7.714,10.787a2.867,2.867,0,0,1,0,3.359l-8.494,11.842a3.124,3.124,0,0,1-2.538,1.282l-6.542.006a3.027,3.027,0,0,1-3.089-2.964V283.495A2.931,2.931,0,0,1,136.035,281.063Z" transform="translate(-134.712 -269.054)" fill="#35a8e0"/></g></svg>