<?xml version="1.0" encoding="utf-8"?>
<!-- Generator: Adobe Illustrator 25.4.1, SVG Export Plug-In . SVG Version: 6.00 Build 0)  -->
<svg version="1.1" id="Layer_1" xmlns="http://www.w3.org/2000/svg" xmlns:xlink="http://www.w3.org/1999/xlink" x="0px" y="0px"
	 viewBox="0 0 130 36.74" style="enable-background:new 0 0 130 36.74;" xml:space="preserve">
<style type="text/css">
	.st0{fill:#FFFFFF;}
</style>
<g>
	<g>
		<g>
			<path class="st0" d="M56.22,35.77c-2.32,0-4.44-0.41-6.35-1.22c-1.92-0.82-3.56-1.92-4.94-3.33c-1.37-1.4-2.45-3.04-3.22-4.91
				c-0.77-1.87-1.16-3.87-1.16-5.99v-0.09c0-2.12,0.39-4.11,1.16-5.99c0.77-1.87,1.86-3.52,3.26-4.94c1.4-1.42,3.06-2.54,4.98-3.37
				c1.92-0.83,4.04-1.24,6.35-1.24c2.32,0,4.44,0.41,6.35,1.22c1.92,0.82,3.56,1.92,4.94,3.33c1.37,1.4,2.45,3.04,3.22,4.91
				c0.77,1.87,1.16,3.87,1.16,5.99v0.09c0,2.12-0.39,4.11-1.16,5.99c-0.77,1.87-1.86,3.52-3.26,4.94c-1.4,1.42-3.06,2.54-4.98,3.37
				C60.65,35.36,58.53,35.77,56.22,35.77z M56.3,30.92c1.48,0,2.84-0.28,4.08-0.84c1.24-0.56,2.3-1.32,3.18-2.27
				c0.88-0.96,1.57-2.08,2.07-3.37c0.5-1.29,0.75-2.66,0.75-4.12v-0.09c0-1.46-0.25-2.84-0.75-4.14c-0.5-1.3-1.2-2.43-2.09-3.39
				c-0.9-0.96-1.97-1.72-3.23-2.3c-1.25-0.57-2.62-0.86-4.1-0.86c-1.48,0-2.84,0.28-4.08,0.84c-1.24,0.56-2.3,1.32-3.18,2.28
				c-0.88,0.96-1.57,2.08-2.07,3.37c-0.5,1.29-0.75,2.66-0.75,4.12v0.09c0,1.46,0.25,2.84,0.75,4.14c0.5,1.3,1.2,2.43,2.09,3.39
				c0.9,0.96,1.97,1.72,3.23,2.3C53.45,30.64,54.82,30.92,56.3,30.92z"/>
			<path class="st0" d="M80.25,4.7H83v26.14h16.06v4.84H77.67V7.28C77.67,5.85,78.83,4.7,80.25,4.7z"/>
			<path class="st0" d="M129.19,10.72c-0.54-1.25-1.31-2.33-2.31-3.23c-1-0.9-2.23-1.59-3.67-2.07c-1.44-0.48-3.05-0.72-4.82-0.72
				h-4.16c-1.43,0-2.58,1.16-2.58,2.58v2.28h-5.31v11.02h-1.84c-1.6,0-2.89,1.29-2.89,2.89v2.43h4.73v9.78h5.32V25.43h6.08
				c1.69,0,3.28-0.23,4.77-0.68c1.49-0.45,2.79-1.11,3.89-1.99c1.11-0.87,1.98-1.96,2.62-3.25c0.64-1.29,0.96-2.8,0.96-4.52v-0.09
				C130,13.37,129.73,11.97,129.19,10.72z M124.54,15.11c0,1.61-0.59,2.92-1.77,3.94c-1.18,1.02-2.8,1.53-4.84,1.53h-6.26V9.54h6.26
				c2.01,0,3.62,0.46,4.82,1.38c1.2,0.92,1.8,2.29,1.8,4.1V15.11z"/>
		</g>
		<g>
			<path class="st0" d="M33.47,23.41v11.16c0,1.2-0.97,2.17-2.17,2.17H17.89c-1.75,0-2.78-1.96-1.79-3.41l7.68-11.16
				c0.41-0.59,1.07-0.94,1.79-0.94h5.72C32.49,21.24,33.47,22.21,33.47,23.41z"/>
			<path class="st0" d="M24.88,18.02h6.1c1.38,0,2.49-1.11,2.49-2.49v-4.3c0-0.83-0.41-1.6-1.09-2.06L19.45,0.43
				c-0.84-0.57-1.93-0.57-2.77-0.01l-1.59,1.05c-1.17,0.77-1.47,2.36-0.66,3.5l8.41,11.99C23.3,17.63,24.06,18.02,24.88,18.02z"/>
			<path class="st0" d="M1.4,12.08l7.36-4.92c1.41-0.94,3.36-0.6,4.33,0.76l7.76,10.85c0.73,1.02,0.73,2.36,0,3.38l-8.54,11.91
				c-0.58,0.81-1.53,1.29-2.55,1.29l-6.58,0.01c-1.71,0-3.11-1.33-3.11-2.98l0-17.84C0.07,13.55,0.57,12.63,1.4,12.08z"/>
		</g>
	</g>
</g>
</svg>
