<svg id="logo-olimpo" xmlns="http://www.w3.org/2000/svg" xmlns:xlink="http://www.w3.org/1999/xlink" width="205.641" height="38.5" viewBox="0 0 205.641 38.5">
  <defs>
    <linearGradient id="linear-gradient" x1="-0.955" y1="-0.217" x2="3.255" y2="1.545" gradientUnits="objectBoundingBox">
      <stop offset="0.244" stop-color="#c39f2b"/>
      <stop offset="0.462" stop-color="#e5c82a"/>
      <stop offset="0.603" stop-color="#d8bd45"/>
      <stop offset="0.796" stop-color="#c39f2b"/>
    </linearGradient>
    <linearGradient id="linear-gradient-2" x1="-0.284" y1="-0.529" x2="1.114" y2="1.243" xlink:href="#linear-gradient"/>
    <linearGradient id="linear-gradient-3" x1="-3.95" y1="-4.803" x2="2.616" y2="3.359" xlink:href="#linear-gradient"/>
    <linearGradient id="linear-gradient-4" x1="-4.799" y1="-5.351" x2="2.594" y2="2.812" xlink:href="#linear-gradient"/>
    <linearGradient id="linear-gradient-5" x1="-4.578" y1="-5.663" x2="1.958" y2="2.269" xlink:href="#linear-gradient"/>
    <linearGradient id="linear-gradient-6" x1="-5.982" y1="-6.096" x2="1.805" y2="1.839" xlink:href="#linear-gradient"/>
  </defs>
  <g id="Grupo_346" data-name="Grupo 346" transform="translate(-247.556 -254.925)">
    <g id="Grupo_351" data-name="Grupo 351" transform="translate(247.556 254.925)">
      <g id="Grupo_349" data-name="Grupo 349" transform="translate(0 0)">
        <g id="Grupo_347" data-name="Grupo 347" transform="translate(0 7.715)">
          <g id="Grupo_346-2" data-name="Grupo 346" transform="translate(0 7.029)">
            <path id="Caminho_85" data-name="Caminho 85" d="M272.221,306.553a12.34,12.34,0,0,1-24.665,0c0-6.662,5.452-11.844,12.349-11.844A11.992,11.992,0,0,1,272.221,306.553Zm-21.939,0a9.595,9.595,0,1,0,9.623-9.288A9.5,9.5,0,0,0,250.282,306.553Z" transform="translate(-247.556 -294.709)" fill="#caae42"/>
            <path id="Caminho_86" data-name="Caminho 86" d="M306.474,306.553a12.34,12.34,0,0,1-24.665,0c0-6.662,5.451-11.844,12.349-11.844A11.992,11.992,0,0,1,306.474,306.553Zm-21.939,0a9.595,9.595,0,1,0,9.623-9.288A9.5,9.5,0,0,0,284.535,306.553Z" transform="translate(-269.115 -294.709)" fill="#caae42"/>
          </g>
          <path id="Caminho_87" data-name="Caminho 87" d="M288.648,279.657a13.258,13.258,0,0,0-2.242-.334q-1.4-.111-3.4-.156H266.8a33.4,33.4,0,0,0-5.727.445v-3.869a23.885,23.885,0,0,0,5.683.533h12.7q4.528,0,5.55-.044t1.909-.155a13.442,13.442,0,0,0,1.732-.334Z" transform="translate(-256.065 -275.743)" fill="#caae42"/>
        </g>
        <g id="Grupo_348" data-name="Grupo 348" transform="translate(8.934)">
          <rect id="Retângulo_139" data-name="Retângulo 139" width="3.924" height="3.924" transform="translate(2.774 0) rotate(45)" fill="#caae42"/>
          <rect id="Retângulo_140" data-name="Retângulo 140" width="3.924" height="3.924" transform="translate(10.008 0) rotate(45)" fill="#caae42"/>
          <rect id="Retângulo_141" data-name="Retângulo 141" width="3.924" height="3.924" transform="translate(16.717 0) rotate(45)" fill="#caae42"/>
        </g>
      </g>
      <g id="Grupo_350" data-name="Grupo 350" transform="translate(44.745 16.493)">
        <path id="Caminho_88" data-name="Caminho 88" d="M389.278,309.792a9.368,9.368,0,0,1-2.884,6.908,10.461,10.461,0,0,1-7.608,2.952,10.323,10.323,0,0,1-7.68-2.952,9.287,9.287,0,0,1-2.813-6.908,10.291,10.291,0,0,1,2.632-7.254,10.127,10.127,0,0,1,7.861-3.109,10.289,10.289,0,0,1,7.933,3.109A10.464,10.464,0,0,1,389.278,309.792Zm-2.6,0a8.81,8.81,0,0,0-1.911-5.935,7.58,7.58,0,0,0-6.022-2.387,7.264,7.264,0,0,0-5.878,2.638,8.557,8.557,0,0,0-2.019,5.715,7.5,7.5,0,0,0,2.128,5.37,7.612,7.612,0,0,0,5.805,2.418,7.648,7.648,0,0,0,7.9-7.819Z" transform="translate(-368.292 -299.43)" fill="#fff"/>
        <path id="Caminho_89" data-name="Caminho 89" d="M450.806,320.136q-2.308-.094-4.147-.142t-3.281-.016l-2.939.079-4.345.11q.36-1.037.361-10.394v-5.762q0-1.366.036.236-.036-1.319-.126-2.261a8.21,8.21,0,0,0-.271-1.538h3.173a8.286,8.286,0,0,0-.27,1.617q-.091,1.021-.127,2.528v5.621l-.036,7.976h7.608q1.947,0,2.272-.377a2.239,2.239,0,0,0,.324-.973h1.767A24.227,24.227,0,0,0,450.806,320.136Z" transform="translate(-410.967 -300.07)" fill="#fff"/>
        <path id="Caminho_90" data-name="Caminho 90" d="M489.265,300.531a8.273,8.273,0,0,0-.271,1.586q-.089.99-.126,2.4v11.462a20.706,20.706,0,0,0,.36,4.051h-3.136a14.813,14.813,0,0,0,.432-4.019v-8.981q0-3.2-.036-3.925t-.126-1.35a8.471,8.471,0,0,0-.271-1.225Z" transform="translate(-442.436 -300.123)" fill="#fff"/>
        <path id="Caminho_91" data-name="Caminho 91" d="M529.043,300.362a10.058,10.058,0,0,0-.721,3.925q-.036.6-.054,2.072t-.019,3.862v5.747q.035,1.413.126,2.387a8.2,8.2,0,0,0,.271,1.57h-3.029a8.267,8.267,0,0,0,.271-1.585q.089-.99.126-2.4V302.56a26.261,26.261,0,0,1-2.524,5.072q-2.128,3.627-5.95,9.5-2.236-3.329-3.894-6.029-3.968-6.436-4.543-8.384v13.22q.034,1.445.126,2.434a7.585,7.585,0,0,0,.27,1.554h-2.921a8.2,8.2,0,0,0,.27-1.57q.09-.973.127-2.387V306.36q0-1.476-.037-2.072a10.054,10.054,0,0,0-.722-3.925h3.534l7.753,12.906,7.9-12.906Z" transform="translate(-455.103 -300.017)" fill="#fff"/>
        <path id="Caminho_92" data-name="Caminho 92" d="M594.1,305.857a4.9,4.9,0,0,1-2.6,4.459,9.293,9.293,0,0,1-4.074,1.225q-.325,0-.937.016t-1.353.031q-.739.017-1.461.016h-1.261c0,.293-.007.529-.019.706s-.018.414-.018.707-.005.717-.018,1.272-.017,1.345-.017,2.371q.035,1.068.126,1.868a7.874,7.874,0,0,0,.271,1.4h-3.173a8.219,8.219,0,0,0,.27-1.554q.089-.957.126-2.371V304.444q-.036-1.475-.126-2.481a8.354,8.354,0,0,0-.27-1.6h7.9a8.215,8.215,0,0,1,3.966,1.036A4.833,4.833,0,0,1,594.1,305.857Zm-2.525,0a3.117,3.117,0,0,0-1.009-2.481,4.211,4.211,0,0,0-1.875-.942q-.325-.063-.649-.094a5.155,5.155,0,0,1-.613-.094q-1.046-.125-4.976-.094l-.036,7.568q2.163.032,3.407.016a13.119,13.119,0,0,0,1.6-.079Q591.609,309.123,591.574,305.857Z" transform="translate(-501.269 -300.017)" fill="#fff"/>
        <path id="Caminho_93" data-name="Caminho 93" d="M647.141,309.792a9.367,9.367,0,0,1-2.885,6.908,10.459,10.459,0,0,1-7.608,2.952,10.323,10.323,0,0,1-7.68-2.952,9.289,9.289,0,0,1-2.813-6.908,10.292,10.292,0,0,1,2.632-7.254,10.128,10.128,0,0,1,7.86-3.109,10.291,10.291,0,0,1,7.933,3.109A10.467,10.467,0,0,1,647.141,309.792Zm-2.6,0a8.81,8.81,0,0,0-1.911-5.935,7.581,7.581,0,0,0-6.022-2.387,7.263,7.263,0,0,0-5.877,2.638,8.554,8.554,0,0,0-2.02,5.715,7.5,7.5,0,0,0,2.127,5.37,7.614,7.614,0,0,0,5.805,2.418,7.648,7.648,0,0,0,7.9-7.819Z" transform="translate(-530.591 -299.43)" fill="#fff"/>
      </g>
    </g>
    <g id="Grupo_353" data-name="Grupo 353" transform="translate(414.871 269.616)">
      <path id="Caminho_94" data-name="Caminho 94" d="M699.03,294.565v3.511h3.739v18.8h3.511V294.565Z" transform="translate(-699.03 -294.565)" fill="url(#linear-gradient)"/>
      <path id="Caminho_95" data-name="Caminho 95" d="M735.7,313.1a8.432,8.432,0,0,1-3.146.606,8.068,8.068,0,1,1,8.189-9.341l2.128-3.684a11.414,11.414,0,0,0-10.317-6.118,11.1,11.1,0,1,0,0,22.189c.36,0,.715-.017,1.066-.047Z" transform="translate(-712.881 -294.565)" fill="url(#linear-gradient-2)"/>
      <g id="Grupo_352" data-name="Grupo 352" transform="translate(20.125 11.477)">
        <path id="Caminho_96" data-name="Caminho 96" d="M754.732,329.426l-.376,1.112h-1.024l1.635-4.816h1.308l1.706,4.816h-1.095l-.4-1.112Zm1.535-.854c-.342-1.016-.56-1.665-.676-2.1h-.007c-.119.475-.359,1.23-.633,2.1Z" transform="translate(-753.333 -325.652)" fill="url(#linear-gradient-3)"/>
        <path id="Caminho_97" data-name="Caminho 97" d="M766.413,330.538v-4.816h1.29c.6,1.081,1.714,3.032,1.935,3.557h.013c-.054-.5-.053-1.339-.053-2.129v-1.427h.944v4.816h-1.224c-.517-.941-1.749-3.181-1.987-3.737h-.013c.035.421.046,1.41.046,2.273v1.465Z" transform="translate(-761.566 -325.652)" fill="url(#linear-gradient-4)"/>
        <path id="Caminho_98" data-name="Caminho 98" d="M783.538,328a2.3,2.3,0,0,1-2.369,2.494,2.247,2.247,0,0,1-2.3-2.478,2.3,2.3,0,0,1,2.37-2.478A2.24,2.24,0,0,1,783.538,328Zm-3.6,0c0,.94.413,1.651,1.266,1.651.927,0,1.254-.775,1.254-1.634,0-.911-.373-1.627-1.271-1.627C780.322,326.381,779.942,327.053,779.942,327.991Z" transform="translate(-769.404 -325.534)" fill="url(#linear-gradient-5)"/>
        <path id="Caminho_99" data-name="Caminho 99" d="M792.915,329.008c.11.484.457.7,1.014.7s.793-.219.793-.572c0-.392-.232-.562-1.056-.754-1.31-.308-1.635-.785-1.635-1.435,0-.839.628-1.409,1.768-1.409,1.279,0,1.788.688,1.857,1.392h-1.049c-.05-.3-.214-.618-.835-.618-.423,0-.678.175-.678.517s.2.471.982.651c1.4.33,1.708.851,1.708,1.53,0,.879-.666,1.483-1.939,1.483-1.223,0-1.866-.6-1.982-1.48Z" transform="translate(-777.586 -325.534)" fill="url(#linear-gradient-6)"/>
      </g>
    </g>
  </g>
</svg>
