<?xml version="1.0" encoding="utf-8"?>
<!-- Generator: Adobe Illustrator 25.4.1, SVG Export Plug-In . SVG Version: 6.00 Build 0)  -->
<svg version="1.1" id="Layer_1" xmlns="http://www.w3.org/2000/svg" xmlns:xlink="http://www.w3.org/1999/xlink" x="0px" y="0px"
	 viewBox="0 0 130 49.46" style="enable-background:new 0 0 130 49.46;" xml:space="preserve">
<style type="text/css">
	.st0{fill:#FFFFFF;}
</style>
<g>
	<g>
		<path class="st0" d="M69.58,42.14h1.03v5.92h-1.03V42.14z"/>
		<path class="st0" d="M72.09,43.59h1.03v0.7c0.07-0.11,0.15-0.21,0.24-0.3c0.09-0.09,0.19-0.18,0.3-0.25
			c0.12-0.07,0.24-0.13,0.38-0.18c0.14-0.04,0.29-0.06,0.47-0.06c0.51,0,0.9,0.16,1.17,0.47c0.28,0.31,0.41,0.73,0.41,1.25v2.84
			h-1.03v-2.53c0-0.35-0.08-0.62-0.25-0.81c-0.16-0.19-0.4-0.28-0.7-0.28c-0.3,0-0.54,0.1-0.72,0.29c-0.18,0.19-0.28,0.47-0.28,0.81
			v2.52h-1.03V43.59z"/>
		<path class="st0" d="M79.41,48.16c-0.33,0-0.64-0.06-0.92-0.18c-0.28-0.12-0.53-0.29-0.73-0.5c-0.21-0.21-0.37-0.45-0.49-0.74
			c-0.12-0.28-0.17-0.58-0.17-0.9v-0.02c0-0.32,0.06-0.62,0.17-0.9c0.12-0.28,0.28-0.53,0.49-0.74c0.21-0.21,0.45-0.38,0.74-0.5
			c0.28-0.12,0.59-0.19,0.93-0.19c0.42,0,0.77,0.07,1.05,0.21c0.28,0.14,0.52,0.33,0.73,0.56l-0.63,0.69
			c-0.16-0.16-0.33-0.3-0.5-0.4c-0.18-0.1-0.4-0.16-0.66-0.16c-0.19,0-0.36,0.04-0.52,0.11c-0.16,0.08-0.29,0.18-0.41,0.3
			c-0.11,0.13-0.2,0.28-0.27,0.45c-0.06,0.18-0.1,0.36-0.1,0.55v0.02c0,0.2,0.03,0.38,0.1,0.56c0.06,0.17,0.16,0.33,0.28,0.46
			c0.12,0.13,0.26,0.23,0.42,0.31c0.16,0.08,0.34,0.11,0.54,0.11c0.24,0,0.46-0.05,0.64-0.16c0.18-0.1,0.36-0.24,0.52-0.4l0.62,0.61
			c-0.22,0.25-0.47,0.45-0.75,0.6C80.2,48.09,79.84,48.16,79.41,48.16z"/>
		<path class="st0" d="M84.29,48.16c-0.34,0-0.65-0.06-0.94-0.18c-0.29-0.12-0.54-0.29-0.75-0.5c-0.21-0.21-0.38-0.45-0.5-0.74
			c-0.12-0.28-0.18-0.58-0.18-0.9v-0.02c0-0.32,0.06-0.62,0.18-0.91c0.12-0.28,0.29-0.53,0.5-0.74c0.21-0.21,0.46-0.38,0.75-0.5
			c0.29-0.12,0.61-0.19,0.95-0.19c0.34,0,0.66,0.06,0.95,0.18c0.29,0.12,0.54,0.29,0.75,0.5c0.21,0.21,0.38,0.46,0.5,0.74
			c0.12,0.28,0.18,0.58,0.18,0.9v0.02c0,0.32-0.06,0.61-0.18,0.9c-0.12,0.28-0.29,0.53-0.5,0.74c-0.21,0.21-0.46,0.38-0.76,0.5
			C84.95,48.1,84.63,48.16,84.29,48.16z M84.31,47.28c0.21,0,0.39-0.04,0.56-0.11c0.17-0.08,0.31-0.18,0.42-0.31
			c0.12-0.13,0.21-0.28,0.27-0.45c0.06-0.17,0.09-0.35,0.09-0.55v-0.02c0-0.2-0.03-0.38-0.1-0.56c-0.07-0.18-0.16-0.33-0.28-0.46
			s-0.26-0.23-0.43-0.31s-0.35-0.11-0.55-0.11c-0.2,0-0.39,0.04-0.55,0.11c-0.16,0.08-0.31,0.18-0.42,0.3
			c-0.12,0.13-0.21,0.28-0.27,0.45c-0.06,0.18-0.09,0.36-0.09,0.55v0.02c0,0.2,0.03,0.38,0.1,0.55s0.16,0.32,0.28,0.46
			c0.12,0.13,0.26,0.24,0.43,0.31C83.93,47.24,84.11,47.28,84.31,47.28z"/>
		<path class="st0" d="M87.73,43.59h1.03v1.01c0.14-0.34,0.34-0.61,0.6-0.81c0.26-0.2,0.59-0.3,0.98-0.28v1.08h-0.06
			c-0.23,0-0.43,0.04-0.62,0.11c-0.19,0.07-0.35,0.18-0.48,0.33c-0.14,0.15-0.24,0.33-0.31,0.55c-0.07,0.22-0.11,0.48-0.11,0.77v1.7
			h-1.03V43.59z"/>
		<path class="st0" d="M91.22,43.59h1.03v0.74c0.16-0.24,0.37-0.44,0.61-0.6c0.24-0.16,0.54-0.24,0.9-0.24
			c0.26,0,0.52,0.05,0.77,0.15c0.25,0.1,0.47,0.25,0.66,0.45c0.19,0.2,0.35,0.44,0.47,0.73c0.12,0.29,0.18,0.62,0.18,0.99v0.02
			c0,0.37-0.06,0.7-0.17,0.99c-0.12,0.29-0.27,0.53-0.46,0.73S94.79,47.9,94.54,48c-0.25,0.1-0.51,0.15-0.77,0.15
			c-0.37,0-0.67-0.08-0.91-0.24c-0.24-0.16-0.44-0.34-0.6-0.55v2.05h-1.03V43.59z M93.53,47.27c0.18,0,0.34-0.03,0.5-0.1
			c0.16-0.07,0.29-0.16,0.41-0.28c0.12-0.12,0.21-0.27,0.27-0.45c0.07-0.18,0.1-0.38,0.1-0.6v-0.02c0-0.21-0.03-0.41-0.1-0.59
			c-0.07-0.18-0.16-0.33-0.27-0.45c-0.12-0.12-0.25-0.22-0.41-0.29c-0.16-0.07-0.32-0.1-0.5-0.1s-0.34,0.03-0.5,0.1
			c-0.16,0.07-0.3,0.16-0.41,0.29c-0.12,0.13-0.21,0.28-0.28,0.45c-0.07,0.18-0.11,0.37-0.11,0.58v0.02c0,0.21,0.04,0.41,0.11,0.59
			c0.07,0.18,0.17,0.33,0.28,0.45c0.12,0.12,0.26,0.22,0.41,0.29C93.19,47.23,93.36,47.27,93.53,47.27z"/>
		<path class="st0" d="M99.01,48.16c-0.34,0-0.65-0.06-0.94-0.18c-0.29-0.12-0.54-0.29-0.75-0.5c-0.21-0.21-0.38-0.45-0.5-0.74
			c-0.12-0.28-0.18-0.58-0.18-0.9v-0.02c0-0.32,0.06-0.62,0.18-0.91c0.12-0.28,0.29-0.53,0.5-0.74c0.21-0.21,0.46-0.38,0.75-0.5
			c0.29-0.12,0.61-0.19,0.95-0.19c0.34,0,0.66,0.06,0.95,0.18c0.29,0.12,0.54,0.29,0.75,0.5c0.21,0.21,0.38,0.46,0.5,0.74
			c0.12,0.28,0.18,0.58,0.18,0.9v0.02c0,0.32-0.06,0.61-0.18,0.9c-0.12,0.28-0.29,0.53-0.5,0.74c-0.21,0.21-0.46,0.38-0.76,0.5
			C99.68,48.1,99.36,48.16,99.01,48.16z M99.03,47.28c0.21,0,0.39-0.04,0.56-0.11c0.17-0.08,0.31-0.18,0.42-0.31
			c0.12-0.13,0.21-0.28,0.27-0.45c0.06-0.17,0.09-0.35,0.09-0.55v-0.02c0-0.2-0.03-0.38-0.1-0.56c-0.07-0.18-0.16-0.33-0.28-0.46
			s-0.26-0.23-0.43-0.31s-0.35-0.11-0.55-0.11c-0.2,0-0.39,0.04-0.55,0.11c-0.16,0.08-0.31,0.18-0.42,0.3
			c-0.12,0.13-0.21,0.28-0.27,0.45c-0.06,0.18-0.09,0.36-0.09,0.55v0.02c0,0.2,0.03,0.38,0.1,0.55s0.16,0.32,0.28,0.46
			c0.12,0.13,0.26,0.24,0.43,0.31C98.65,47.24,98.83,47.28,99.03,47.28z"/>
		<path class="st0" d="M102.45,43.59h1.03v1.01c0.14-0.34,0.34-0.61,0.6-0.81c0.26-0.2,0.59-0.3,0.98-0.28v1.08H105
			c-0.23,0-0.43,0.04-0.62,0.11c-0.19,0.07-0.35,0.18-0.48,0.33c-0.14,0.15-0.24,0.33-0.31,0.55c-0.07,0.22-0.11,0.48-0.11,0.77v1.7
			h-1.03V43.59z"/>
		<path class="st0" d="M108.68,48.06v-0.55c-0.15,0.18-0.35,0.33-0.58,0.46c-0.24,0.12-0.52,0.19-0.86,0.19
			c-0.21,0-0.42-0.03-0.61-0.09c-0.19-0.06-0.36-0.15-0.5-0.26c-0.14-0.12-0.26-0.26-0.35-0.43c-0.09-0.17-0.13-0.37-0.13-0.6v-0.02
			c0-0.25,0.04-0.46,0.14-0.65c0.09-0.18,0.22-0.34,0.38-0.46c0.16-0.12,0.35-0.21,0.58-0.27c0.22-0.06,0.46-0.09,0.72-0.09
			c0.27,0,0.5,0.02,0.69,0.05c0.19,0.03,0.37,0.08,0.55,0.14V45.4c0-0.31-0.09-0.55-0.28-0.71c-0.19-0.16-0.46-0.25-0.82-0.25
			c-0.25,0-0.48,0.03-0.68,0.08c-0.2,0.05-0.4,0.12-0.6,0.2l-0.28-0.82c0.25-0.11,0.5-0.2,0.76-0.27c0.26-0.07,0.57-0.1,0.94-0.1
			c0.67,0,1.16,0.16,1.48,0.5c0.32,0.33,0.48,0.79,0.48,1.39v2.65H108.68z M108.7,46.19c-0.13-0.05-0.28-0.09-0.46-0.13
			c-0.18-0.03-0.37-0.05-0.56-0.05c-0.32,0-0.57,0.06-0.75,0.19c-0.18,0.12-0.27,0.29-0.27,0.51v0.02c0,0.21,0.08,0.38,0.25,0.49
			c0.17,0.11,0.37,0.17,0.61,0.17c0.17,0,0.33-0.02,0.47-0.07c0.14-0.04,0.27-0.11,0.38-0.19c0.11-0.08,0.19-0.18,0.25-0.3
			c0.06-0.12,0.09-0.24,0.09-0.39V46.19z"/>
		<path class="st0" d="M111.71,49.09l0.68-1c-0.25-0.06-0.49-0.16-0.7-0.3c-0.21-0.14-0.39-0.31-0.54-0.5
			c-0.15-0.19-0.27-0.41-0.35-0.66c-0.09-0.24-0.13-0.5-0.13-0.77v-0.02c0-0.32,0.06-0.62,0.17-0.9c0.12-0.28,0.28-0.53,0.49-0.74
			c0.21-0.21,0.45-0.38,0.74-0.5c0.28-0.12,0.59-0.19,0.93-0.19c0.42,0,0.77,0.07,1.05,0.21c0.28,0.14,0.52,0.33,0.73,0.56
			l-0.63,0.69c-0.16-0.16-0.33-0.3-0.5-0.4c-0.18-0.1-0.4-0.16-0.66-0.16c-0.19,0-0.36,0.04-0.52,0.11
			c-0.16,0.08-0.29,0.18-0.41,0.3c-0.11,0.13-0.2,0.28-0.27,0.45c-0.06,0.18-0.1,0.36-0.1,0.55v0.02c0,0.2,0.03,0.38,0.1,0.56
			c0.06,0.17,0.16,0.33,0.28,0.46c0.12,0.13,0.26,0.23,0.42,0.31c0.16,0.08,0.34,0.11,0.54,0.11c0.24,0,0.46-0.05,0.64-0.16
			c0.18-0.1,0.36-0.24,0.52-0.4l0.62,0.61c-0.21,0.23-0.44,0.41-0.69,0.57c-0.25,0.15-0.57,0.24-0.96,0.26l-0.55,1.3L111.71,49.09z"
			/>
		<path class="st0" d="M117.87,48.16c-0.34,0-0.65-0.06-0.94-0.18c-0.29-0.12-0.54-0.29-0.75-0.5c-0.21-0.21-0.38-0.45-0.5-0.74
			c-0.12-0.28-0.18-0.58-0.18-0.9v-0.02c0-0.32,0.06-0.62,0.18-0.91c0.12-0.28,0.29-0.53,0.5-0.74c0.21-0.21,0.46-0.38,0.75-0.5
			c0.29-0.12,0.61-0.19,0.95-0.19c0.34,0,0.66,0.06,0.95,0.18c0.29,0.12,0.54,0.29,0.75,0.5c0.21,0.21,0.38,0.46,0.5,0.74
			c0.12,0.28,0.18,0.58,0.18,0.9v0.02c0,0.32-0.06,0.61-0.18,0.9c-0.12,0.28-0.29,0.53-0.5,0.74c-0.21,0.21-0.46,0.38-0.76,0.5
			C118.53,48.1,118.21,48.16,117.87,48.16z M116.27,42.94c0.1-0.34,0.21-0.61,0.35-0.79s0.34-0.27,0.6-0.27
			c0.12,0,0.23,0.02,0.35,0.06c0.11,0.04,0.22,0.08,0.33,0.12c0.1,0.04,0.2,0.08,0.29,0.11c0.09,0.03,0.18,0.05,0.25,0.05
			c0.12,0,0.22-0.03,0.28-0.1c0.06-0.07,0.12-0.17,0.19-0.32l0.57,0.18c-0.1,0.34-0.21,0.6-0.35,0.78c-0.14,0.18-0.34,0.27-0.6,0.27
			c-0.12,0-0.23-0.02-0.35-0.05c-0.11-0.03-0.22-0.07-0.33-0.11c-0.1-0.04-0.2-0.08-0.3-0.12c-0.09-0.04-0.18-0.05-0.25-0.05
			c-0.12,0-0.22,0.03-0.28,0.1c-0.06,0.07-0.12,0.18-0.19,0.32L116.27,42.94z M117.88,47.28c0.21,0,0.39-0.04,0.56-0.11
			c0.17-0.08,0.31-0.18,0.42-0.31c0.12-0.13,0.21-0.28,0.27-0.45c0.06-0.17,0.09-0.35,0.09-0.55v-0.02c0-0.2-0.03-0.38-0.1-0.56
			c-0.07-0.18-0.16-0.33-0.28-0.46c-0.12-0.13-0.26-0.23-0.43-0.31s-0.35-0.11-0.55-0.11c-0.2,0-0.39,0.04-0.55,0.11
			c-0.16,0.08-0.31,0.18-0.42,0.3c-0.12,0.13-0.21,0.28-0.27,0.45c-0.06,0.18-0.09,0.36-0.09,0.55v0.02c0,0.2,0.03,0.38,0.1,0.55
			s0.16,0.32,0.28,0.46c0.12,0.13,0.26,0.24,0.43,0.31C117.51,47.24,117.69,47.28,117.88,47.28z"/>
		<path class="st0" d="M123.35,48.16c-0.32,0-0.62-0.06-0.9-0.17c-0.28-0.11-0.52-0.27-0.73-0.47c-0.21-0.2-0.37-0.45-0.49-0.73
			c-0.12-0.29-0.18-0.6-0.18-0.94v-0.02c0-0.32,0.05-0.62,0.16-0.91c0.11-0.28,0.26-0.53,0.45-0.74c0.19-0.21,0.42-0.38,0.69-0.5
			c0.26-0.12,0.56-0.18,0.88-0.18c0.36,0,0.67,0.07,0.94,0.19s0.49,0.3,0.67,0.52c0.18,0.22,0.31,0.48,0.4,0.77
			c0.09,0.29,0.14,0.6,0.14,0.92c0,0.05,0,0.09,0,0.14c0,0.05-0.01,0.1-0.01,0.15h-3.28c0.06,0.37,0.2,0.65,0.44,0.84
			c0.23,0.19,0.52,0.29,0.85,0.29c0.25,0,0.47-0.05,0.66-0.14c0.19-0.09,0.37-0.22,0.55-0.4l0.6,0.53
			c-0.21,0.25-0.47,0.46-0.77,0.61C124.12,48.09,123.76,48.16,123.35,48.16z M124.37,45.52c-0.02-0.16-0.05-0.32-0.11-0.46
			s-0.13-0.27-0.23-0.37c-0.1-0.1-0.21-0.19-0.34-0.25c-0.13-0.06-0.28-0.09-0.45-0.09c-0.32,0-0.58,0.11-0.78,0.33
			c-0.21,0.22-0.33,0.5-0.38,0.85H124.37z"/>
		<path class="st0" d="M127.94,48.15c-0.32,0-0.65-0.06-0.98-0.17c-0.33-0.11-0.64-0.28-0.92-0.5l0.46-0.7
			c0.24,0.18,0.49,0.32,0.74,0.41c0.25,0.09,0.49,0.14,0.72,0.14c0.22,0,0.39-0.04,0.51-0.13c0.12-0.09,0.18-0.2,0.18-0.35v-0.02
			c0-0.08-0.03-0.16-0.08-0.22c-0.05-0.06-0.13-0.12-0.22-0.16c-0.09-0.04-0.2-0.09-0.32-0.13c-0.12-0.04-0.25-0.08-0.38-0.12
			c-0.16-0.04-0.33-0.1-0.5-0.16c-0.17-0.06-0.32-0.14-0.45-0.24c-0.13-0.1-0.24-0.22-0.33-0.37c-0.08-0.15-0.13-0.33-0.13-0.54
			v-0.02c0-0.21,0.04-0.4,0.12-0.57c0.08-0.17,0.19-0.31,0.34-0.43c0.14-0.12,0.31-0.21,0.51-0.27c0.19-0.06,0.4-0.09,0.62-0.09
			c0.28,0,0.57,0.05,0.85,0.14c0.29,0.09,0.55,0.22,0.79,0.38l-0.41,0.73c-0.21-0.13-0.43-0.23-0.65-0.31
			c-0.22-0.08-0.42-0.11-0.61-0.11c-0.2,0-0.35,0.04-0.46,0.13c-0.11,0.08-0.16,0.19-0.16,0.32v0.02c0,0.08,0.03,0.15,0.08,0.21
			c0.06,0.06,0.13,0.11,0.22,0.16c0.09,0.05,0.2,0.09,0.32,0.14c0.12,0.04,0.25,0.08,0.38,0.12c0.16,0.05,0.33,0.11,0.49,0.18
			c0.16,0.07,0.31,0.15,0.44,0.25c0.13,0.1,0.24,0.22,0.33,0.36c0.08,0.14,0.13,0.31,0.13,0.51v0.02c0,0.24-0.04,0.44-0.13,0.62
			c-0.09,0.17-0.2,0.32-0.35,0.43c-0.15,0.12-0.33,0.2-0.53,0.26C128.39,48.12,128.17,48.15,127.94,48.15z"/>
	</g>
	<g>
		<g>
			<path class="st0" d="M56.22,35.77c-2.32,0-4.44-0.41-6.35-1.22c-1.92-0.82-3.56-1.92-4.94-3.33c-1.37-1.4-2.45-3.04-3.22-4.91
				c-0.77-1.87-1.16-3.87-1.16-5.99v-0.09c0-2.12,0.39-4.11,1.16-5.99c0.77-1.87,1.86-3.52,3.26-4.94c1.4-1.42,3.06-2.54,4.98-3.37
				c1.92-0.83,4.04-1.24,6.35-1.24c2.32,0,4.44,0.41,6.35,1.22c1.92,0.82,3.56,1.92,4.94,3.33c1.37,1.4,2.45,3.04,3.22,4.91
				c0.77,1.87,1.16,3.87,1.16,5.99v0.09c0,2.12-0.39,4.11-1.16,5.99c-0.77,1.87-1.86,3.52-3.26,4.94c-1.4,1.42-3.06,2.54-4.98,3.37
				C60.65,35.36,58.53,35.77,56.22,35.77z M56.3,30.92c1.48,0,2.84-0.28,4.08-0.84c1.24-0.56,2.3-1.32,3.18-2.27
				c0.88-0.96,1.57-2.08,2.07-3.37c0.5-1.29,0.75-2.66,0.75-4.12v-0.09c0-1.46-0.25-2.84-0.75-4.14c-0.5-1.3-1.2-2.43-2.09-3.39
				c-0.9-0.96-1.97-1.72-3.23-2.3c-1.25-0.57-2.62-0.86-4.1-0.86c-1.48,0-2.84,0.28-4.08,0.84c-1.24,0.56-2.3,1.32-3.18,2.28
				c-0.88,0.96-1.57,2.08-2.07,3.37c-0.5,1.29-0.75,2.66-0.75,4.12v0.09c0,1.46,0.25,2.84,0.75,4.14c0.5,1.3,1.2,2.43,2.09,3.39
				c0.9,0.96,1.97,1.72,3.23,2.3C53.45,30.64,54.82,30.92,56.3,30.92z"/>
			<path class="st0" d="M80.25,4.7H83v26.14h16.06v4.84H77.67V7.28C77.67,5.85,78.83,4.7,80.25,4.7z"/>
			<path class="st0" d="M129.19,10.72c-0.54-1.25-1.31-2.33-2.31-3.23c-1-0.9-2.23-1.59-3.67-2.07c-1.44-0.48-3.05-0.72-4.82-0.72
				h-4.16c-1.43,0-2.58,1.16-2.58,2.58v2.28h-5.31v11.02h-1.84c-1.6,0-2.89,1.29-2.89,2.89v2.43h4.73v9.78h5.32V25.43h6.08
				c1.69,0,3.28-0.23,4.77-0.68c1.49-0.45,2.79-1.11,3.89-1.99c1.11-0.87,1.98-1.96,2.62-3.25c0.64-1.29,0.96-2.8,0.96-4.52v-0.09
				C130,13.37,129.73,11.97,129.19,10.72z M124.54,15.11c0,1.61-0.59,2.92-1.77,3.94c-1.18,1.02-2.8,1.53-4.84,1.53h-6.26V9.54h6.26
				c2.01,0,3.62,0.46,4.82,1.38c1.2,0.92,1.8,2.29,1.8,4.1V15.11z"/>
		</g>
		<g>
			<path class="st0" d="M33.47,23.41v11.16c0,1.2-0.97,2.17-2.17,2.17H17.89c-1.75,0-2.78-1.96-1.79-3.41l7.68-11.16
				c0.41-0.59,1.07-0.94,1.79-0.94h5.72C32.49,21.24,33.47,22.21,33.47,23.41z"/>
			<path class="st0" d="M24.88,18.02h6.1c1.38,0,2.49-1.11,2.49-2.49v-4.3c0-0.83-0.41-1.6-1.09-2.06L19.45,0.43
				c-0.84-0.57-1.93-0.57-2.77-0.01l-1.59,1.05c-1.17,0.77-1.47,2.36-0.66,3.5l8.41,11.99C23.3,17.63,24.06,18.02,24.88,18.02z"/>
			<path class="st0" d="M1.4,12.08l7.36-4.92c1.41-0.94,3.36-0.6,4.33,0.76l7.76,10.85c0.73,1.02,0.73,2.36,0,3.38l-8.54,11.91
				c-0.58,0.81-1.53,1.29-2.55,1.29l-6.58,0.01c-1.71,0-3.11-1.33-3.11-2.98l0-17.84C0.07,13.55,0.57,12.63,1.4,12.08z"/>
		</g>
	</g>
</g>
</svg>
