<svg xmlns="http://www.w3.org/2000/svg" width="130.019" height="48.198" viewBox="0 0 130.019 48.198"><g transform="translate(74.743 42.169)"><path d="M280.924,346.468h1.033v4.987h3.116v.94h-4.149Z" transform="translate(-280.924 -346.468)" fill="#fff"/><path d="M292.835,353.8a2.422,2.422,0,0,1-.945-.182,2.351,2.351,0,0,1-.753-.495,2.25,2.25,0,0,1-.5-.737,2.289,2.289,0,0,1-.178-.9v-.017a2.272,2.272,0,0,1,.182-.906,2.339,2.339,0,0,1,1.253-1.245,2.4,2.4,0,0,1,.953-.187,2.452,2.452,0,0,1,.952.182,2.3,2.3,0,0,1,1.249,1.237,2.282,2.282,0,0,1,.178.9v.017a2.252,2.252,0,0,1-.182.9,2.327,2.327,0,0,1-1.258,1.245A2.433,2.433,0,0,1,292.835,353.8Zm.017-.889a1.329,1.329,0,0,0,.559-.114,1.3,1.3,0,0,0,.426-.309,1.343,1.343,0,0,0,.269-.453,1.618,1.618,0,0,0,.093-.546v-.017a1.545,1.545,0,0,0-.1-.559,1.411,1.411,0,0,0-.282-.456,1.361,1.361,0,0,0-.429-.31,1.392,1.392,0,0,0-1.1,0,1.352,1.352,0,0,0-.425.305,1.28,1.28,0,0,0-.269.453,1.639,1.639,0,0,0-.092.55v.017a1.507,1.507,0,0,0,.1.555,1.461,1.461,0,0,0,.281.457,1.325,1.325,0,0,0,.429.313A1.293,1.293,0,0,0,292.852,352.911Z" transform="translate(-285.587 -347.771)" fill="#fff"/><path d="M302.994,352.69a1.9,1.9,0,0,1-.518-.068,1.067,1.067,0,0,1-.414-.22.984.984,0,0,1-.269-.4,1.788,1.788,0,0,1-.094-.622v-2.355h-.567v-.88h.567v-1.228h1.034v1.228h1.2v.88h-1.2v2.193a.552.552,0,0,0,.144.428.581.581,0,0,0,.406.131,1.4,1.4,0,0,0,.635-.153v.839a1.783,1.783,0,0,1-.415.169A1.972,1.972,0,0,1,302.994,352.69Z" transform="translate(-290.802 -346.686)" fill="#fff"/><path d="M310.433,353.8a2.385,2.385,0,0,1-.9-.17,2.187,2.187,0,0,1-.728-.474,2.212,2.212,0,0,1-.487-.732,2.444,2.444,0,0,1-.177-.944v-.017a2.54,2.54,0,0,1,.161-.906,2.278,2.278,0,0,1,.453-.741,2.145,2.145,0,0,1,.69-.5,2.1,2.1,0,0,1,.881-.182,2.123,2.123,0,0,1,.936.2,1.925,1.925,0,0,1,.669.525,2.3,2.3,0,0,1,.4.766,3.079,3.079,0,0,1,.136.919c0,.045,0,.092,0,.14s-.007.1-.013.148h-3.285a1.3,1.3,0,0,0,.436.842,1.288,1.288,0,0,0,.851.292,1.5,1.5,0,0,0,.66-.135,2.153,2.153,0,0,0,.55-.4l.6.533a2.49,2.49,0,0,1-.766.61A2.307,2.307,0,0,1,310.433,353.8Zm1.016-2.651a1.738,1.738,0,0,0-.11-.461,1.174,1.174,0,0,0-.229-.372,1.079,1.079,0,0,0-.343-.251,1.06,1.06,0,0,0-.453-.092,1.034,1.034,0,0,0-.784.326,1.474,1.474,0,0,0-.376.851Z" transform="translate(-294.226 -347.771)" fill="#fff"/><path d="M318.623,349.228h1.033v.684a3.014,3.014,0,0,1,.236-.29,1.641,1.641,0,0,1,.291-.247,1.4,1.4,0,0,1,.371-.175,1.549,1.549,0,0,1,.461-.064,1.458,1.458,0,0,1,.814.218,1.434,1.434,0,0,1,.511.577,2.2,2.2,0,0,1,.641-.577,1.7,1.7,0,0,1,.879-.218,1.5,1.5,0,0,1,1.155.445,1.783,1.783,0,0,1,.416,1.266V353.7H324.4v-2.534a1.219,1.219,0,0,0-.236-.811.823.823,0,0,0-.666-.279.9.9,0,0,0-.687.283,1.161,1.161,0,0,0-.265.824V353.7H321.51v-2.543a1.207,1.207,0,0,0-.236-.8.824.824,0,0,0-.666-.279.877.877,0,0,0-.691.3,1.193,1.193,0,0,0-.261.819V353.7h-1.033Z" transform="translate(-299.352 -347.771)" fill="#fff"/><path d="M336.8,353.723v-.551a1.911,1.911,0,0,1-.585.457,1.838,1.838,0,0,1-.863.187,2.05,2.05,0,0,1-.609-.089,1.507,1.507,0,0,1-.5-.262,1.277,1.277,0,0,1-.478-1.029v-.017a1.459,1.459,0,0,1,.135-.648,1.265,1.265,0,0,1,.377-.457,1.636,1.636,0,0,1,.576-.271,2.809,2.809,0,0,1,.724-.089,4,4,0,0,1,.69.051,4.3,4.3,0,0,1,.546.136v-.085a.892.892,0,0,0-.284-.712,1.214,1.214,0,0,0-.817-.245,2.736,2.736,0,0,0-.677.076,4.493,4.493,0,0,0-.6.2l-.279-.821a4.793,4.793,0,0,1,.762-.271,3.753,3.753,0,0,1,.94-.1,1.984,1.984,0,0,1,1.482.5,1.909,1.909,0,0,1,.483,1.392v2.651Zm.026-1.872a2.628,2.628,0,0,0-.462-.127,2.964,2.964,0,0,0-.563-.051,1.32,1.32,0,0,0-.754.186.586.586,0,0,0-.271.508v.017a.556.556,0,0,0,.249.491,1.069,1.069,0,0,0,.614.169,1.552,1.552,0,0,0,.47-.067,1.207,1.207,0,0,0,.377-.19.873.873,0,0,0,.25-.3.84.84,0,0,0,.089-.385Z" transform="translate(-306.752 -347.796)" fill="#fff"/><path d="M344.083,349.228h1.033v.7a2.447,2.447,0,0,1,.241-.3,1.564,1.564,0,0,1,.684-.427,1.575,1.575,0,0,1,.468-.064,1.489,1.489,0,0,1,1.174.466,1.819,1.819,0,0,1,.414,1.253V353.7h-1.033v-2.534a1.19,1.19,0,0,0-.247-.807.882.882,0,0,0-.7-.283.95.95,0,0,0-.722.291,1.135,1.135,0,0,0-.277.815V353.7h-1.033Z" transform="translate(-311.797 -347.771)" fill="#fff"/><path d="M356.167,353.8a2.383,2.383,0,0,1-.9-.17,2.167,2.167,0,0,1-1.215-1.206,2.435,2.435,0,0,1-.178-.944v-.017a2.54,2.54,0,0,1,.161-.906,2.268,2.268,0,0,1,.453-.741,2.14,2.14,0,0,1,.69-.5,2.1,2.1,0,0,1,.881-.182,2.125,2.125,0,0,1,.936.2,1.929,1.929,0,0,1,.669.525,2.281,2.281,0,0,1,.4.766,3.08,3.08,0,0,1,.136.919c0,.045,0,.092,0,.14s-.007.1-.012.148H354.9a1.3,1.3,0,0,0,.436.842,1.288,1.288,0,0,0,.852.292,1.505,1.505,0,0,0,.661-.135,2.164,2.164,0,0,0,.55-.4l.6.533a2.478,2.478,0,0,1-.766.61A2.307,2.307,0,0,1,356.167,353.8Zm1.016-2.651a1.778,1.778,0,0,0-.11-.461,1.194,1.194,0,0,0-.228-.372,1.091,1.091,0,0,0-.343-.251,1.062,1.062,0,0,0-.453-.092,1.033,1.033,0,0,0-.783.326,1.471,1.471,0,0,0-.377.851Z" transform="translate(-316.582 -347.771)" fill="#fff"/><path d="M365.525,352.69a1.907,1.907,0,0,1-.519-.068,1.066,1.066,0,0,1-.414-.22.985.985,0,0,1-.269-.4,1.789,1.789,0,0,1-.094-.622v-2.355h-.567v-.88h.567v-1.228h1.034v1.228h1.2v.88h-1.2v2.193a.554.554,0,0,0,.144.428.582.582,0,0,0,.406.131,1.4,1.4,0,0,0,.635-.153v.839a1.784,1.784,0,0,1-.415.169A1.966,1.966,0,0,1,365.525,352.69Z" transform="translate(-321.367 -346.686)" fill="#fff"/><path d="M373.039,353.8a2.423,2.423,0,0,1-.945-.182,2.351,2.351,0,0,1-.754-.495,2.25,2.25,0,0,1-.5-.737,2.29,2.29,0,0,1-.178-.9v-.017a2.272,2.272,0,0,1,.182-.906,2.337,2.337,0,0,1,1.253-1.245,2.4,2.4,0,0,1,.953-.187,2.452,2.452,0,0,1,.952.182,2.295,2.295,0,0,1,1.249,1.237,2.282,2.282,0,0,1,.178.9v.017a2.252,2.252,0,0,1-.182.9A2.327,2.327,0,0,1,374,353.614,2.431,2.431,0,0,1,373.039,353.8Zm.017-.889a1.332,1.332,0,0,0,.559-.114,1.305,1.305,0,0,0,.425-.309,1.342,1.342,0,0,0,.269-.453,1.619,1.619,0,0,0,.093-.546v-.017a1.545,1.545,0,0,0-.1-.559,1.4,1.4,0,0,0-.282-.456,1.362,1.362,0,0,0-.429-.31,1.39,1.39,0,0,0-1.1,0,1.348,1.348,0,0,0-.425.305,1.279,1.279,0,0,0-.269.453,1.638,1.638,0,0,0-.092.55v.017a1.506,1.506,0,0,0,.1.555,1.471,1.471,0,0,0,.281.457,1.325,1.325,0,0,0,.429.313A1.294,1.294,0,0,0,373.056,352.911Z" transform="translate(-324.792 -347.771)" fill="#fff"/><path d="M383.215,353.8a3,3,0,0,1-.978-.171,3.141,3.141,0,0,1-.919-.505l.457-.7a2.961,2.961,0,0,0,.741.41,2.08,2.08,0,0,0,.724.14.864.864,0,0,0,.512-.131.41.41,0,0,0,.182-.35v-.017a.325.325,0,0,0-.08-.22.68.68,0,0,0-.22-.161,2.668,2.668,0,0,0-.322-.127c-.122-.039-.247-.079-.377-.118-.164-.045-.329-.1-.5-.16a1.832,1.832,0,0,1-.449-.241,1.2,1.2,0,0,1-.326-.368,1.067,1.067,0,0,1-.127-.54v-.017a1.257,1.257,0,0,1,.461-1,1.525,1.525,0,0,1,.508-.27,2.048,2.048,0,0,1,.623-.094,2.811,2.811,0,0,1,.855.137,3.043,3.043,0,0,1,.787.376l-.406.732a3.438,3.438,0,0,0-.652-.309,1.876,1.876,0,0,0-.61-.114.742.742,0,0,0-.462.127.388.388,0,0,0-.165.321v.016a.291.291,0,0,0,.084.207.834.834,0,0,0,.224.161,2.6,2.6,0,0,0,.321.135q.183.063.377.122c.164.051.327.11.491.177a2.067,2.067,0,0,1,.444.249,1.234,1.234,0,0,1,.326.359.979.979,0,0,1,.127.515v.017a1.4,1.4,0,0,1-.127.617,1.2,1.2,0,0,1-.351.435,1.559,1.559,0,0,1-.529.262A2.337,2.337,0,0,1,383.215,353.8Z" transform="translate(-329.998 -347.787)" fill="#fff"/></g><g transform="translate(40.506 4.7)"><path d="M229.628,304.268a16.084,16.084,0,0,1-6.357-1.224,14.972,14.972,0,0,1-8.161-8.247,15.56,15.56,0,0,1-1.159-5.992v-.086a15.562,15.562,0,0,1,1.159-5.992,15.152,15.152,0,0,1,3.265-4.94,15.668,15.668,0,0,1,11.34-4.618,16.082,16.082,0,0,1,6.357,1.224,14.971,14.971,0,0,1,8.161,8.248,15.57,15.57,0,0,1,1.16,5.992v.086a15.567,15.567,0,0,1-1.16,5.992,15.167,15.167,0,0,1-3.264,4.94,15.668,15.668,0,0,1-11.34,4.618Zm.086-4.854a9.834,9.834,0,0,0,4.085-.838,9.685,9.685,0,0,0,3.186-2.276,10.542,10.542,0,0,0,2.074-3.372,11.322,11.322,0,0,0,.749-4.124v-.086a11.49,11.49,0,0,0-.749-4.145,10.306,10.306,0,0,0-2.1-3.393,10.136,10.136,0,0,0-3.229-2.3,9.94,9.94,0,0,0-11.378,2.255,10.555,10.555,0,0,0-2.075,3.371,11.322,11.322,0,0,0-.748,4.124v.086a11.492,11.492,0,0,0,.748,4.145,10.3,10.3,0,0,0,2.1,3.393,10.12,10.12,0,0,0,3.23,2.3A9.762,9.762,0,0,0,229.714,299.415Z" transform="translate(-213.95 -273.17)" fill="#fff"/><path d="M289.2,273.17h2.745v26.163h16.072v4.848h-21.4V275.754A2.584,2.584,0,0,1,289.2,273.17Z" transform="translate(-249.47 -273.17)" fill="#fff"/><path d="M361.086,279.2a9.176,9.176,0,0,0-2.315-3.232,10.283,10.283,0,0,0-3.669-2.075,15.225,15.225,0,0,0-4.827-.72h-4.161a2.583,2.583,0,0,0-2.584,2.584v2.284h-5.31v11.031h-1.838a2.893,2.893,0,0,0-2.893,2.893V294.4h4.731v9.784h5.329V293.917h6.086a16.371,16.371,0,0,0,4.772-.677,11.715,11.715,0,0,0,3.9-1.987A9.4,9.4,0,0,0,360.931,288a10.059,10.059,0,0,0,.964-4.521v-.087A10.514,10.514,0,0,0,361.086,279.2Zm-4.652,4.39a4.978,4.978,0,0,1-1.775,3.946,7.153,7.153,0,0,1-4.843,1.535H343.55v-11.05h6.267a7.713,7.713,0,0,1,4.821,1.381,4.85,4.85,0,0,1,1.8,4.1Z" transform="translate(-272.382 -273.17)" fill="#fff"/></g><path d="M183.091,307.732V318.9a2.175,2.175,0,0,1-2.175,2.175H167.5a2.175,2.175,0,0,1-1.791-3.409L173.4,306.5a2.174,2.174,0,0,1,1.791-.941h5.728A2.174,2.174,0,0,1,183.091,307.732Z" transform="translate(-149.674 -284.301)" fill="#063"/><path d="M172.839,282.013h6.106a2.491,2.491,0,0,0,2.491-2.491v-4.3a2.491,2.491,0,0,0-1.095-2.063L167.41,264.4a2.491,2.491,0,0,0-2.772-.014l-1.588,1.052a2.492,2.492,0,0,0-.665,3.507l8.413,12A2.493,2.493,0,0,0,172.839,282.013Z" transform="translate(-148.018 -263.976)" fill="#009640"/><path d="M136.043,282.4l7.368-4.925a3.186,3.186,0,0,1,4.333.76l7.763,10.855a2.885,2.885,0,0,1,0,3.38l-8.548,11.917a3.143,3.143,0,0,1-2.554,1.29l-6.584.006a3.045,3.045,0,0,1-3.108-2.982V284.844A2.949,2.949,0,0,1,136.043,282.4Z" transform="translate(-134.711 -270.312)" fill="#2fac66"/></svg>