<?xml version="1.0" encoding="utf-8"?>
<!-- Generator: Adobe Illustrator 26.0.2, SVG Export Plug-In . SVG Version: 6.00 Build 0)  -->
<svg version="1.1" id="Layer_1" xmlns="http://www.w3.org/2000/svg" xmlns:xlink="http://www.w3.org/1999/xlink" x="0px" y="0px"
	 viewBox="0 0 129.2 50.8" style="enable-background:new 0 0 129.2 50.8;" xml:space="preserve">
<style type="text/css">
	.st0{enable-background:new    ;}
	.st1{fill:#FFFFFF;}
	.st2{fill:#E94E1B;}
	.st3{fill:#F9B233;}
	.st4{fill:#F39200;}
</style>
<g transform="translate(0 0)">
	<g class="st0">
		<path class="st1" d="M100.5,42.5l-2.3,6.3h-0.8l-2.3-6.3h0.8l1.7,5c0.1,0.2,0.1,0.3,0.1,0.6h0c0-0.2,0.1-0.4,0.1-0.6l1.8-5H100.5z
			"/>
		<path class="st1" d="M104.4,46.8h-3.2c0,0.5,0.1,0.9,0.4,1.2c0.3,0.3,0.6,0.4,1.1,0.4c0.5,0,1-0.2,1.4-0.5v0.7
			c-0.4,0.3-0.9,0.4-1.6,0.4c-0.6,0-1.1-0.2-1.5-0.6c-0.4-0.4-0.5-1-0.5-1.7c0-0.7,0.2-1.3,0.6-1.7c0.4-0.4,0.9-0.7,1.5-0.7
			s1,0.2,1.4,0.6s0.5,0.9,0.5,1.6V46.8z M103.6,46.2c0-0.4-0.1-0.7-0.3-1c-0.2-0.2-0.5-0.3-0.8-0.3c-0.3,0-0.6,0.1-0.9,0.4
			c-0.2,0.2-0.4,0.6-0.4,1H103.6z"/>
		<path class="st1" d="M109.2,48.8h-0.7v-2.6c0-1-0.3-1.4-1-1.4c-0.4,0-0.7,0.1-0.9,0.4c-0.2,0.3-0.4,0.6-0.4,1v2.6h-0.7v-4.5h0.7
			v0.7h0c0.3-0.6,0.8-0.9,1.5-0.9c0.5,0,0.9,0.2,1.1,0.5c0.3,0.3,0.4,0.8,0.4,1.4V48.8z"/>
		<path class="st1" d="M114.4,48.8h-0.7v-0.8h0c-0.3,0.6-0.8,0.9-1.5,0.9c-0.6,0-1-0.2-1.4-0.6c-0.3-0.4-0.5-1-0.5-1.6
			c0-0.7,0.2-1.3,0.6-1.8c0.4-0.4,0.9-0.7,1.5-0.7c0.6,0,1.1,0.2,1.3,0.7h0v-2.8h0.7V48.8z M113.7,46.8v-0.7c0-0.4-0.1-0.7-0.4-0.9
			s-0.5-0.4-0.9-0.4c-0.4,0-0.8,0.2-1,0.5s-0.4,0.8-0.4,1.3c0,0.5,0.1,0.9,0.4,1.2c0.2,0.3,0.6,0.5,1,0.5c0.4,0,0.7-0.1,1-0.4
			C113.5,47.6,113.7,47.3,113.7,46.8z"/>
		<path class="st1" d="M119.1,48.8h-0.7v-0.7h0c-0.3,0.5-0.8,0.8-1.4,0.8c-0.4,0-0.8-0.1-1.1-0.4c-0.3-0.2-0.4-0.6-0.4-0.9
			c0-0.8,0.5-1.3,1.5-1.5l1.3-0.2c0-0.8-0.3-1.1-0.9-1.1c-0.5,0-1,0.2-1.5,0.6v-0.7c0.4-0.3,1-0.4,1.5-0.4c1.1,0,1.6,0.6,1.6,1.7
			V48.8z M118.3,46.6l-1.1,0.1c-0.3,0-0.6,0.1-0.8,0.2c-0.2,0.1-0.3,0.3-0.3,0.6c0,0.2,0.1,0.4,0.2,0.5c0.2,0.1,0.4,0.2,0.6,0.2
			c0.4,0,0.7-0.1,0.9-0.4c0.2-0.2,0.3-0.6,0.3-1V46.6z"/>
		<path class="st1" d="M120.2,48.7v-0.8c0.4,0.3,0.8,0.4,1.3,0.4c0.6,0,0.9-0.2,0.9-0.6c0-0.1,0-0.2-0.1-0.3
			c-0.1-0.1-0.1-0.2-0.2-0.2c-0.1-0.1-0.2-0.1-0.3-0.2c-0.1-0.1-0.3-0.1-0.4-0.2c-0.2-0.1-0.4-0.2-0.5-0.2c-0.2-0.1-0.3-0.2-0.4-0.3
			c-0.1-0.1-0.2-0.2-0.2-0.3c-0.1-0.1-0.1-0.3-0.1-0.5c0-0.2,0-0.4,0.1-0.6c0.1-0.2,0.2-0.3,0.4-0.4c0.2-0.1,0.3-0.2,0.6-0.2
			c0.2-0.1,0.4-0.1,0.6-0.1c0.4,0,0.7,0.1,1,0.2v0.7c-0.3-0.2-0.7-0.3-1.1-0.3c-0.1,0-0.3,0-0.4,0c-0.1,0-0.2,0.1-0.3,0.1
			c-0.1,0.1-0.1,0.1-0.2,0.2c0,0.1-0.1,0.2-0.1,0.3c0,0.1,0,0.2,0.1,0.3c0,0.1,0.1,0.2,0.2,0.2c0.1,0.1,0.2,0.1,0.3,0.2
			s0.2,0.1,0.4,0.2c0.2,0.1,0.4,0.2,0.5,0.2c0.2,0.1,0.3,0.2,0.4,0.3c0.1,0.1,0.2,0.2,0.3,0.3c0.1,0.1,0.1,0.3,0.1,0.5
			c0,0.2,0,0.4-0.1,0.6c-0.1,0.2-0.2,0.3-0.4,0.4s-0.4,0.2-0.6,0.2c-0.2,0.1-0.4,0.1-0.7,0.1C120.9,48.9,120.5,48.9,120.2,48.7z"/>
	</g>
	<g transform="translate(40.242 4.669)">
		<path class="st1" d="M15.6,30.9c-2.2,0-4.3-0.4-6.3-1.2c-1.8-0.8-3.5-1.9-4.9-3.3C3,25,1.9,23.3,1.2,21.5c-0.8-1.9-1.2-3.9-1.2-6
			v-0.1c0-2,0.4-4.1,1.2-6C1.9,7.7,3,6,4.4,4.6c3-3,7-4.6,11.3-4.6C17.8,0,20,0.4,22,1.2c1.8,0.8,3.5,1.9,4.9,3.3
			c1.4,1.4,2.5,3.1,3.2,4.9c0.8,1.9,1.2,3.9,1.2,6v0.1c0,2-0.4,4.1-1.2,6c-0.7,1.8-1.8,3.5-3.2,4.9C23.9,29.3,19.8,31,15.6,30.9
			L15.6,30.9z M15.7,26.1c1.4,0,2.8-0.3,4.1-0.8c1.2-0.5,2.3-1.3,3.2-2.3c0.9-1,1.6-2.1,2.1-3.4c0.5-1.3,0.8-2.7,0.7-4.1v-0.1
			c0-1.4-0.2-2.8-0.7-4.1c-0.5-1.2-1.2-2.4-2.1-3.4c-0.9-1-2-1.7-3.2-2.3c-3.9-1.8-8.4-0.9-11.3,2.2c-0.9,1-1.6,2.1-2.1,3.4
			c-0.5,1.3-0.8,2.7-0.7,4.1v0.1c0,1.4,0.2,2.8,0.7,4.1c0.5,1.2,1.2,2.4,2.1,3.4c0.9,1,2,1.7,3.2,2.3C12.9,25.8,14.3,26.1,15.7,26.1
			L15.7,26.1z"/>
		<path class="st1" d="M39.5,0h2.7v26h16v4.8H36.9V2.6C36.9,1.1,38.1,0,39.5,0z"/>
		<path class="st1" d="M88.1,6c-0.5-1.2-1.3-2.3-2.3-3.2c-1.1-0.9-2.3-1.6-3.6-2.1C80.6,0.2,79,0,77.4,0h-4.1
			c-1.4,0-2.6,1.1-2.6,2.6v2.3h-5.3v11h-1.8c-1.6,0-2.9,1.3-2.9,2.9v2.4h4.7v9.7h5.3V20.6h6c1.6,0,3.2-0.2,4.7-0.7
			c1.4-0.4,2.7-1.1,3.9-2c1.1-0.9,2-2,2.6-3.2c0.7-1.4,1-2.9,1-4.5v-0.1C88.9,8.7,88.7,7.3,88.1,6z M83.5,10.3c0,1.5-0.6,3-1.8,3.9
			c-1.4,1.1-3.1,1.6-4.8,1.5h-6.2v-11h6.2c1.7-0.1,3.4,0.4,4.8,1.4C82.9,7.2,83.6,8.7,83.5,10.3L83.5,10.3z"/>
	</g>
	<path class="st2" d="M33.2,23.3v11.1c0,1.2-1,2.2-2.2,2.2l0,0H17.7c-1.2,0-2.2-1-2.2-2.2c0-0.4,0.1-0.9,0.4-1.2l7.6-11.1
		c0.4-0.6,1.1-0.9,1.8-0.9H31C32.2,21.1,33.2,22.1,33.2,23.3C33.2,23.3,33.2,23.3,33.2,23.3z"/>
	<path class="st3" d="M24.7,17.9h6.1c1.4,0,2.5-1.1,2.5-2.5l0,0v-4.3c0-0.8-0.4-1.6-1.1-2L19.3,0.4c-0.8-0.6-1.9-0.6-2.8,0l-1.6,1
		c-1.1,0.8-1.5,2.3-0.7,3.4c0,0,0,0,0,0.1l8.4,11.9C23.1,17.5,23.9,17.9,24.7,17.9z"/>
	<path class="st4" d="M1.3,12l7.3-4.9c1.4-0.9,3.3-0.6,4.3,0.8l7.7,10.8c0.7,1,0.7,2.4,0,3.4l-8.5,11.8c-0.6,0.8-1.5,1.3-2.5,1.3
		l-6.5,0c-1.7,0-3.1-1.3-3.1-3c0,0,0,0,0,0V14.4C0,13.5,0.5,12.5,1.3,12z"/>
</g>
</svg>
