<?xml version="1.0" encoding="utf-8"?>
<!-- Generator: Adobe Illustrator 25.4.1, SVG Export Plug-In . SVG Version: 6.00 Build 0)  -->
<svg version="1.1" id="Layer_1" xmlns="http://www.w3.org/2000/svg" xmlns:xlink="http://www.w3.org/1999/xlink" x="0px" y="0px"
	 viewBox="0 0 130 48.19" style="enable-background:new 0 0 130 48.19;" xml:space="preserve">
<style type="text/css">
	.st0{fill:#FFFFFF;}
</style>
<g>
	<g>
		<path class="st0" d="M74.73,42.16h1.03v4.99h3.12v0.94h-4.15V42.16z"/>
		<path class="st0" d="M81.98,48.19c-0.34,0-0.65-0.06-0.94-0.18c-0.29-0.12-0.54-0.29-0.75-0.5c-0.21-0.21-0.38-0.45-0.5-0.74
			c-0.12-0.28-0.18-0.58-0.18-0.9v-0.02c0-0.32,0.06-0.62,0.18-0.91c0.12-0.28,0.29-0.53,0.5-0.74c0.21-0.21,0.46-0.38,0.75-0.5
			c0.29-0.12,0.61-0.19,0.95-0.19s0.66,0.06,0.95,0.18c0.29,0.12,0.54,0.29,0.75,0.5c0.21,0.21,0.38,0.46,0.5,0.74
			c0.12,0.28,0.18,0.58,0.18,0.9v0.02c0,0.32-0.06,0.62-0.18,0.9c-0.12,0.28-0.29,0.53-0.5,0.74c-0.21,0.21-0.46,0.38-0.76,0.5
			C82.64,48.13,82.32,48.19,81.98,48.19z M82,47.3c0.21,0,0.39-0.04,0.56-0.11s0.31-0.18,0.42-0.31c0.12-0.13,0.21-0.28,0.27-0.45
			c0.06-0.17,0.09-0.35,0.09-0.55v-0.02c0-0.2-0.03-0.38-0.1-0.56c-0.07-0.18-0.16-0.33-0.28-0.46c-0.12-0.13-0.26-0.23-0.43-0.31
			c-0.17-0.08-0.35-0.11-0.55-0.11c-0.2,0-0.39,0.04-0.55,0.11c-0.16,0.08-0.31,0.18-0.42,0.31c-0.12,0.13-0.21,0.28-0.27,0.45
			c-0.06,0.18-0.09,0.36-0.09,0.55v0.02c0,0.2,0.03,0.38,0.1,0.55c0.07,0.17,0.16,0.32,0.28,0.46c0.12,0.13,0.26,0.24,0.43,0.31
			S81.8,47.3,82,47.3z"/>
		<path class="st0" d="M86.92,48.17c-0.19,0-0.36-0.02-0.52-0.07s-0.3-0.12-0.41-0.22c-0.12-0.1-0.21-0.24-0.27-0.4
			c-0.06-0.17-0.09-0.37-0.09-0.62V44.5h-0.57v-0.88h0.57v-1.23h1.03v1.23h1.2v0.88h-1.2v2.19c0,0.2,0.05,0.34,0.14,0.43
			c0.1,0.09,0.23,0.13,0.41,0.13c0.22,0,0.43-0.05,0.64-0.15v0.84c-0.13,0.07-0.27,0.13-0.42,0.17S87.12,48.17,86.92,48.17z"/>
		<path class="st0" d="M90.94,48.19c-0.32,0-0.62-0.06-0.9-0.17c-0.28-0.11-0.52-0.27-0.73-0.47c-0.21-0.2-0.37-0.45-0.49-0.73
			c-0.12-0.28-0.18-0.6-0.18-0.94v-0.02c0-0.32,0.05-0.62,0.16-0.91c0.11-0.28,0.26-0.53,0.45-0.74c0.19-0.21,0.42-0.38,0.69-0.5
			c0.27-0.12,0.56-0.18,0.88-0.18c0.36,0,0.67,0.07,0.94,0.19c0.27,0.13,0.49,0.3,0.67,0.52c0.18,0.22,0.31,0.48,0.4,0.77
			c0.09,0.29,0.14,0.6,0.14,0.92c0,0.04,0,0.09,0,0.14c0,0.05-0.01,0.1-0.01,0.15h-3.28c0.06,0.37,0.2,0.65,0.44,0.84
			c0.23,0.19,0.52,0.29,0.85,0.29c0.25,0,0.47-0.05,0.66-0.14c0.19-0.09,0.37-0.22,0.55-0.4l0.6,0.53
			c-0.21,0.25-0.47,0.46-0.77,0.61C91.7,48.11,91.35,48.19,90.94,48.19z M91.95,45.54c-0.02-0.16-0.05-0.32-0.11-0.46
			c-0.06-0.14-0.13-0.27-0.23-0.37c-0.1-0.1-0.21-0.19-0.34-0.25c-0.13-0.06-0.28-0.09-0.45-0.09c-0.32,0-0.58,0.11-0.78,0.33
			c-0.21,0.22-0.33,0.5-0.38,0.85H91.95z"/>
		<path class="st0" d="M96.74,48.09v-0.55c-0.15,0.18-0.35,0.33-0.58,0.46c-0.24,0.12-0.52,0.19-0.86,0.19
			c-0.21,0-0.42-0.03-0.61-0.09c-0.19-0.06-0.36-0.15-0.5-0.26c-0.14-0.12-0.26-0.26-0.35-0.43c-0.09-0.17-0.13-0.37-0.13-0.6v-0.02
			c0-0.25,0.04-0.46,0.14-0.65c0.09-0.18,0.22-0.34,0.38-0.46c0.16-0.12,0.35-0.21,0.58-0.27c0.22-0.06,0.46-0.09,0.72-0.09
			c0.27,0,0.5,0.02,0.69,0.05c0.19,0.03,0.37,0.08,0.55,0.14v-0.08c0-0.31-0.09-0.55-0.28-0.71c-0.19-0.16-0.46-0.25-0.82-0.25
			c-0.25,0-0.48,0.03-0.68,0.08c-0.2,0.05-0.4,0.12-0.6,0.2l-0.28-0.82c0.25-0.11,0.5-0.2,0.76-0.27c0.26-0.07,0.57-0.1,0.94-0.1
			c0.67,0,1.16,0.16,1.48,0.5c0.32,0.33,0.48,0.79,0.48,1.39v2.65H96.74z M96.76,46.22c-0.13-0.05-0.28-0.09-0.46-0.13
			c-0.18-0.03-0.37-0.05-0.56-0.05c-0.32,0-0.57,0.06-0.75,0.19c-0.18,0.12-0.27,0.29-0.27,0.51v0.02c0,0.21,0.08,0.38,0.25,0.49
			c0.17,0.11,0.37,0.17,0.61,0.17c0.17,0,0.33-0.02,0.47-0.07c0.14-0.04,0.27-0.11,0.38-0.19c0.11-0.08,0.19-0.18,0.25-0.3
			c0.06-0.12,0.09-0.24,0.09-0.39V46.22z"/>
		<path class="st0" d="M98.97,43.62H100v0.68c0.07-0.1,0.15-0.2,0.24-0.29c0.08-0.09,0.18-0.17,0.29-0.25
			c0.11-0.07,0.23-0.13,0.37-0.18c0.14-0.04,0.29-0.06,0.46-0.06c0.32,0,0.59,0.07,0.81,0.22c0.22,0.15,0.39,0.34,0.51,0.58
			c0.18-0.24,0.39-0.43,0.64-0.58c0.25-0.15,0.54-0.22,0.88-0.22c0.49,0,0.88,0.15,1.16,0.44c0.28,0.3,0.42,0.72,0.42,1.27v2.85
			h-1.03v-2.53c0-0.35-0.08-0.62-0.24-0.81c-0.16-0.19-0.38-0.28-0.67-0.28c-0.28,0-0.51,0.09-0.69,0.28
			c-0.18,0.19-0.27,0.46-0.27,0.82v2.52h-1.03v-2.54c0-0.35-0.08-0.62-0.24-0.8c-0.16-0.19-0.38-0.28-0.67-0.28
			c-0.29,0-0.52,0.1-0.69,0.3c-0.17,0.2-0.26,0.47-0.26,0.82v2.51h-1.03V43.62z"/>
		<path class="st0" d="M109.06,48.19c-0.32,0-0.62-0.06-0.9-0.17c-0.28-0.11-0.52-0.27-0.73-0.47c-0.21-0.2-0.37-0.45-0.49-0.73
			c-0.12-0.28-0.18-0.6-0.18-0.94v-0.02c0-0.32,0.05-0.62,0.16-0.91c0.11-0.28,0.26-0.53,0.45-0.74c0.19-0.21,0.42-0.38,0.69-0.5
			c0.27-0.12,0.56-0.18,0.88-0.18c0.36,0,0.67,0.07,0.94,0.19c0.27,0.13,0.49,0.3,0.67,0.52c0.18,0.22,0.31,0.48,0.4,0.77
			c0.09,0.29,0.14,0.6,0.14,0.92c0,0.04,0,0.09,0,0.14c0,0.05-0.01,0.1-0.01,0.15h-3.28c0.06,0.37,0.2,0.65,0.44,0.84
			c0.23,0.19,0.52,0.29,0.85,0.29c0.25,0,0.47-0.05,0.66-0.14c0.19-0.09,0.37-0.22,0.55-0.4l0.6,0.53
			c-0.21,0.25-0.47,0.46-0.77,0.61C109.83,48.11,109.47,48.19,109.06,48.19z M110.08,45.54c-0.02-0.16-0.05-0.32-0.11-0.46
			c-0.06-0.14-0.13-0.27-0.23-0.37c-0.1-0.1-0.21-0.19-0.34-0.25c-0.13-0.06-0.28-0.09-0.45-0.09c-0.32,0-0.58,0.11-0.78,0.33
			c-0.21,0.22-0.33,0.5-0.38,0.85H110.08z"/>
		<path class="st0" d="M112.13,43.62h1.03v0.7c0.07-0.11,0.15-0.21,0.24-0.3c0.09-0.09,0.19-0.18,0.3-0.25
			c0.12-0.07,0.24-0.13,0.38-0.18c0.14-0.04,0.29-0.06,0.47-0.06c0.51,0,0.9,0.16,1.17,0.47c0.28,0.31,0.41,0.73,0.41,1.25v2.85
			h-1.03v-2.53c0-0.35-0.08-0.62-0.25-0.81c-0.16-0.19-0.4-0.28-0.7-0.28c-0.3,0-0.54,0.1-0.72,0.29c-0.18,0.19-0.28,0.47-0.28,0.82
			v2.52h-1.03V43.62z"/>
		<path class="st0" d="M118.88,48.17c-0.19,0-0.36-0.02-0.52-0.07c-0.16-0.04-0.3-0.12-0.41-0.22c-0.12-0.1-0.21-0.24-0.27-0.4
			c-0.06-0.17-0.09-0.37-0.09-0.62V44.5h-0.57v-0.88h0.57v-1.23h1.03v1.23h1.2v0.88h-1.2v2.19c0,0.2,0.05,0.34,0.14,0.43
			c0.1,0.09,0.23,0.13,0.41,0.13c0.22,0,0.43-0.05,0.64-0.15v0.84c-0.13,0.07-0.27,0.13-0.41,0.17
			C119.24,48.15,119.08,48.17,118.88,48.17z"/>
		<path class="st0" d="M122.97,48.19c-0.34,0-0.65-0.06-0.94-0.18c-0.29-0.12-0.54-0.29-0.75-0.5c-0.21-0.21-0.38-0.45-0.5-0.74
			c-0.12-0.28-0.18-0.58-0.18-0.9v-0.02c0-0.32,0.06-0.62,0.18-0.91c0.12-0.28,0.29-0.53,0.5-0.74c0.21-0.21,0.46-0.38,0.75-0.5
			c0.29-0.12,0.61-0.19,0.95-0.19s0.66,0.06,0.95,0.18c0.29,0.12,0.54,0.29,0.75,0.5c0.21,0.21,0.38,0.46,0.5,0.74
			c0.12,0.28,0.18,0.58,0.18,0.9v0.02c0,0.32-0.06,0.62-0.18,0.9c-0.12,0.28-0.29,0.53-0.5,0.74c-0.21,0.21-0.46,0.38-0.76,0.5
			C123.64,48.13,123.32,48.19,122.97,48.19z M122.99,47.3c0.21,0,0.39-0.04,0.56-0.11s0.31-0.18,0.42-0.31
			c0.12-0.13,0.21-0.28,0.27-0.45c0.06-0.17,0.09-0.35,0.09-0.55v-0.02c0-0.2-0.03-0.38-0.1-0.56c-0.07-0.18-0.16-0.33-0.28-0.46
			c-0.12-0.13-0.26-0.23-0.43-0.31c-0.17-0.08-0.35-0.11-0.55-0.11c-0.2,0-0.39,0.04-0.55,0.11c-0.16,0.08-0.31,0.18-0.42,0.31
			c-0.12,0.13-0.21,0.28-0.27,0.45c-0.06,0.18-0.09,0.36-0.09,0.55v0.02c0,0.2,0.03,0.38,0.1,0.55c0.07,0.17,0.16,0.32,0.28,0.46
			c0.12,0.13,0.26,0.24,0.43,0.31S122.79,47.3,122.99,47.3z"/>
		<path class="st0" d="M127.94,48.17c-0.32,0-0.65-0.06-0.98-0.17c-0.33-0.11-0.64-0.28-0.92-0.5l0.46-0.7
			c0.24,0.18,0.49,0.32,0.74,0.41c0.25,0.09,0.49,0.14,0.72,0.14c0.22,0,0.39-0.04,0.51-0.13c0.12-0.09,0.18-0.2,0.18-0.35v-0.02
			c0-0.08-0.03-0.16-0.08-0.22c-0.05-0.06-0.13-0.12-0.22-0.16c-0.09-0.04-0.2-0.09-0.32-0.13c-0.12-0.04-0.25-0.08-0.38-0.12
			c-0.16-0.04-0.33-0.1-0.5-0.16c-0.17-0.06-0.32-0.14-0.45-0.24c-0.13-0.1-0.24-0.22-0.33-0.37c-0.08-0.15-0.13-0.33-0.13-0.54
			V44.9c0-0.21,0.04-0.4,0.12-0.57c0.08-0.17,0.19-0.31,0.34-0.43c0.14-0.12,0.31-0.21,0.51-0.27c0.19-0.06,0.4-0.09,0.62-0.09
			c0.28,0,0.57,0.05,0.86,0.14c0.29,0.09,0.55,0.22,0.79,0.38l-0.41,0.73c-0.21-0.13-0.43-0.23-0.65-0.31
			c-0.22-0.08-0.42-0.11-0.61-0.11c-0.2,0-0.35,0.04-0.46,0.13c-0.11,0.08-0.16,0.19-0.16,0.32v0.02c0,0.08,0.03,0.15,0.08,0.21
			c0.06,0.06,0.13,0.11,0.22,0.16c0.09,0.05,0.2,0.09,0.32,0.14c0.12,0.04,0.25,0.08,0.38,0.12c0.16,0.05,0.33,0.11,0.49,0.18
			c0.16,0.07,0.31,0.15,0.44,0.25c0.13,0.1,0.24,0.22,0.33,0.36c0.08,0.14,0.13,0.31,0.13,0.52v0.02c0,0.24-0.04,0.44-0.13,0.62
			c-0.09,0.17-0.2,0.32-0.35,0.43c-0.15,0.12-0.33,0.2-0.53,0.26C128.39,48.14,128.17,48.17,127.94,48.17z"/>
	</g>
	<g>
		<path class="st0" d="M56.18,35.79c-2.32,0-4.44-0.41-6.36-1.22c-1.92-0.82-3.56-1.93-4.94-3.33c-1.37-1.4-2.45-3.04-3.22-4.92
			c-0.77-1.88-1.16-3.87-1.16-5.99v-0.09c0-2.12,0.39-4.12,1.16-5.99c0.77-1.88,1.86-3.52,3.26-4.94c1.4-1.42,3.06-2.54,4.98-3.37
			c1.92-0.83,4.04-1.25,6.36-1.25c2.32,0,4.44,0.41,6.36,1.22c1.92,0.82,3.56,1.93,4.94,3.33c1.37,1.4,2.45,3.04,3.22,4.92
			c0.77,1.88,1.16,3.87,1.16,5.99v0.09c0,2.12-0.39,4.12-1.16,5.99c-0.77,1.88-1.86,3.52-3.26,4.94c-1.4,1.42-3.06,2.54-4.98,3.37
			C60.61,35.38,58.5,35.79,56.18,35.79z M56.26,30.94c1.48,0,2.84-0.28,4.08-0.84c1.24-0.56,2.3-1.32,3.19-2.28
			c0.88-0.96,1.57-2.08,2.07-3.37c0.5-1.29,0.75-2.66,0.75-4.12v-0.09c0-1.46-0.25-2.84-0.75-4.14c-0.5-1.3-1.2-2.43-2.1-3.39
			c-0.9-0.96-1.97-1.72-3.23-2.3c-1.26-0.57-2.62-0.86-4.11-0.86s-2.84,0.28-4.08,0.84c-1.24,0.56-2.3,1.32-3.19,2.28
			c-0.88,0.96-1.57,2.08-2.07,3.37c-0.5,1.29-0.75,2.66-0.75,4.12v0.09c0,1.46,0.25,2.84,0.75,4.14c0.5,1.3,1.2,2.43,2.1,3.39
			c0.9,0.96,1.97,1.73,3.23,2.3C53.41,30.65,54.78,30.94,56.26,30.94z"/>
		<path class="st0" d="M80.23,4.7h2.74v26.16h16.07v4.85h-21.4V7.28C77.64,5.86,78.8,4.7,80.23,4.7z"/>
		<path class="st0" d="M129.19,10.73c-0.54-1.25-1.31-2.33-2.31-3.23c-1-0.9-2.23-1.59-3.67-2.07c-1.44-0.48-3.05-0.72-4.83-0.72
			h-4.16c-1.43,0-2.58,1.16-2.58,2.58v2.28h-5.31V20.6h-1.84c-1.6,0-2.89,1.3-2.89,2.89v2.44h4.73v9.78h5.33V25.44h6.08
			c1.69,0,3.28-0.23,4.77-0.68c1.49-0.45,2.79-1.11,3.9-1.99c1.11-0.87,1.98-1.96,2.63-3.25c0.64-1.3,0.96-2.8,0.96-4.52v-0.09
			C130,13.38,129.73,11.98,129.19,10.73z M124.54,15.11c0,1.61-0.59,2.92-1.77,3.95c-1.18,1.02-2.8,1.53-4.84,1.53h-6.27V9.55h6.27
			c2.02,0,3.62,0.46,4.82,1.38c1.2,0.92,1.8,2.29,1.8,4.1V15.11z"/>
	</g>
	<path class="st0" d="M33.41,23.43v11.16c0,1.2-0.97,2.17-2.17,2.17H17.82c-1.75,0-2.78-1.97-1.79-3.41l7.69-11.16
		c0.41-0.59,1.08-0.94,1.79-0.94h5.73C32.44,21.25,33.41,22.23,33.41,23.43z"/>
	<path class="st0" d="M24.82,18.03h6.1c1.38,0,2.49-1.12,2.49-2.49l0-4.3c0-0.83-0.41-1.6-1.09-2.06L19.39,0.43
		c-0.84-0.57-1.93-0.57-2.77-0.01l-1.59,1.05c-1.17,0.77-1.47,2.36-0.66,3.51l8.41,12C23.24,17.64,24,18.03,24.82,18.03z"/>
	<path class="st0" d="M1.33,12.08L8.7,7.16c1.41-0.94,3.36-0.6,4.33,0.76l7.76,10.85c0.73,1.02,0.73,2.36,0,3.38l-8.55,11.92
		c-0.58,0.81-1.53,1.29-2.55,1.29l-6.58,0.01C1.39,35.36,0,34.03,0,32.38l0-17.85C0,13.55,0.5,12.64,1.33,12.08z"/>
</g>
</svg>
